  0
SECTION
  2
HEADER
  9
$ACADVER
  1
AC1015
  9
$ACADMAINTVER
 70
     6
  9
$DWGCODEPAGE
  3
ANSI_1252
  9
$INSBASE
 10
0.0
 20
0.0
 30
0.0
  9
$EXTMIN
 10
0.0
 20
0.6062363639
 30
0.0
  9
$EXTMAX
 10
46.3645919688
 20
49.7117940111
 30
0.0
  9
$LIMMIN
 10
0.0
 20
0.0
  9
$LIMMAX
 10
420.0
 20
297.0
  9
$ORTHOMODE
 70
     0
  9
$REGENMODE
 70
     1
  9
$FILLMODE
 70
     1
  9
$QTEXTMODE
 70
     0
  9
$MIRRTEXT
 70
     1
  9
$LTSCALE
 40
1.0
  9
$ATTMODE
 70
     1
  9
$TEXTSIZE
 40
3.5
  9
$TRACEWID
 40
1.0
  9
$TEXTSTYLE
  7
Standard
  9
$CLAYER
  8
0
  9
$CELTYPE
  6
ByLayer
  9
$CECOLOR
 62
   256
  9
$CELTSCALE
 40
1.0
  9
$DISPSILH
 70
     0
  9
$DIMSCALE
 40
1.0
  9
$DIMASZ
 40
3.302
  9
$DIMEXO
 40
0.0
  9
$DIMDLI
 40
3.75
  9
$DIMRND
 40
0.0
  9
$DIMDLE
 40
0.0
  9
$DIMEXE
 40
1.0
  9
$DIMTP
 40
0.0
  9
$DIMTM
 40
0.0
  9
$DIMTXT
 40
3.5
  9
$DIMCEN
 40
2.5
  9
$DIMTSZ
 40
0.0
  9
$DIMTOL
 70
     0
  9
$DIMLIM
 70
     0
  9
$DIMTIH
 70
     1
  9
$DIMTOH
 70
     1
  9
$DIMSE1
 70
     0
  9
$DIMSE2
 70
     0
  9
$DIMTAD
 70
     1
  9
$DIMZIN
 70
     1
  9
$DIMBLK
  1

  9
$DIMASO
 70
     1
  9
$DIMSHO
 70
     1
  9
$DIMPOST
  1

  9
$DIMAPOST
  1

  9
$DIMALT
 70
     0
  9
$DIMALTD
 70
     3
  9
$DIMALTF
 40
0.0393700787
  9
$DIMLFAC
 40
1.0
  9
$DIMTOFL
 70
     1
  9
$DIMTVP
 40
0.0
  9
$DIMTIX
 70
     0
  9
$DIMSOXD
 70
     0
  9
$DIMSAH
 70
     0
  9
$DIMBLK1
  1

  9
$DIMBLK2
  1

  9
$DIMSTYLE
  2
ISO-25
  9
$DIMCLRD
 70
     0
  9
$DIMCLRE
 70
     0
  9
$DIMCLRT
 70
     0
  9
$DIMTFAC
 40
1.0
  9
$DIMGAP
 40
1.524
  9
$DIMJUST
 70
     0
  9
$DIMSD1
 70
     0
  9
$DIMSD2
 70
     0
  9
$DIMTOLJ
 70
     0
  9
$DIMTZIN
 70
     1
  9
$DIMALTZ
 70
     0
  9
$DIMALTTZ
 70
     0
  9
$DIMUPT
 70
     0
  9
$DIMDEC
 70
     2
  9
$DIMTDEC
 70
     2
  9
$DIMALTU
 70
     2
  9
$DIMALTTD
 70
     3
  9
$DIMTXSTY
  7
Standard
  9
$DIMAUNIT
 70
     0
  9
$DIMADEC
 70
     2
  9
$DIMALTRND
 40
0.0
  9
$DIMAZIN
 70
     0
  9
$DIMDSEP
 70
    44
  9
$DIMATFIT
 70
     3
  9
$DIMFRAC
 70
     0
  9
$DIMLDRBLK
  1

  9
$DIMLUNIT
 70
     2
  9
$DIMLWD
 70
    -2
  9
$DIMLWE
 70
    -2
  9
$DIMTMOVE
 70
     0
  9
$LUNITS
 70
     2
  9
$LUPREC
 70
     2
  9
$SKETCHINC
 40
1.0
  9
$FILLETRAD
 40
0.0
  9
$AUNITS
 70
     0
  9
$AUPREC
 70
     2
  9
$MENU
  1
.
  9
$ELEVATION
 40
0.0
  9
$PELEVATION
 40
0.0
  9
$THICKNESS
 40
0.0
  9
$LIMCHECK
 70
     0
  9
$CHAMFERA
 40
0.0
  9
$CHAMFERB
 40
0.0
  9
$CHAMFERC
 40
0.0
  9
$CHAMFERD
 40
0.0
  9
$SKPOLY
 70
     0
  9
$TDCREATE
 40
2460944.933574792
  9
$TDUCREATE
 40
2460945.183574792
  9
$TDUPDATE
 40
2460944.933696551
  9
$TDUUPDATE
 40
2460945.183696551
  9
$TDINDWG
 40
0.0000000116
  9
$TDUSRTIMER
 40
0.0000000116
  9
$USRTIMER
 70
     1
  9
$ANGBASE
 50
0.0
  9
$ANGDIR
 70
     0
  9
$PDMODE
 70
     0
  9
$PDSIZE
 40
-1.0
  9
$PLINEWID
 40
0.0
  9
$SPLFRAME
 70
     0
  9
$SPLINETYPE
 70
     6
  9
$SPLINESEGS
 70
     8
  9
$HANDSEED
  5
DE
  9
$SURFTAB1
 70
     6
  9
$SURFTAB2
 70
     6
  9
$SURFTYPE
 70
     6
  9
$SURFU
 70
     6
  9
$SURFV
 70
     6
  9
$UCSBASE
  2

  9
$UCSNAME
  2

  9
$UCSORG
 10
0.0
 20
0.0
 30
0.0
  9
$UCSXDIR
 10
1.0
 20
0.0
 30
0.0
  9
$UCSYDIR
 10
0.0
 20
1.0
 30
0.0
  9
$UCSORTHOREF
  2

  9
$UCSORTHOVIEW
 70
     0
  9
$UCSORGTOP
 10
0.0
 20
0.0
 30
0.0
  9
$UCSORGBOTTOM
 10
0.0
 20
0.0
 30
0.0
  9
$UCSORGLEFT
 10
0.0
 20
0.0
 30
0.0
  9
$UCSORGRIGHT
 10
0.0
 20
0.0
 30
0.0
  9
$UCSORGFRONT
 10
0.0
 20
0.0
 30
0.0
  9
$UCSORGBACK
 10
0.0
 20
0.0
 30
0.0
  9
$PUCSBASE
  2

  9
$PUCSNAME
  2

  9
$PUCSORG
 10
0.0
 20
0.0
 30
0.0
  9
$PUCSXDIR
 10
1.0
 20
0.0
 30
0.0
  9
$PUCSYDIR
 10
0.0
 20
1.0
 30
0.0
  9
$PUCSORTHOREF
  2

  9
$PUCSORTHOVIEW
 70
     0
  9
$PUCSORGTOP
 10
0.0
 20
0.0
 30
0.0
  9
$PUCSORGBOTTOM
 10
0.0
 20
0.0
 30
0.0
  9
$PUCSORGLEFT
 10
0.0
 20
0.0
 30
0.0
  9
$PUCSORGRIGHT
 10
0.0
 20
0.0
 30
0.0
  9
$PUCSORGFRONT
 10
0.0
 20
0.0
 30
0.0
  9
$PUCSORGBACK
 10
0.0
 20
0.0
 30
0.0
  9
$USERI1
 70
     0
  9
$USERI2
 70
     0
  9
$USERI3
 70
     0
  9
$USERI4
 70
     0
  9
$USERI5
 70
     0
  9
$USERR1
 40
0.0
  9
$USERR2
 40
0.0
  9
$USERR3
 40
0.0
  9
$USERR4
 40
0.0
  9
$USERR5
 40
0.0
  9
$WORLDVIEW
 70
     1
  9
$SHADEDGE
 70
     3
  9
$SHADEDIF
 70
    70
  9
$TILEMODE
 70
     1
  9
$MAXACTVP
 70
    64
  9
$PINSBASE
 10
0.0
 20
0.0
 30
0.0
  9
$PLIMCHECK
 70
     0
  9
$PEXTMIN
 10
1.0000000000E+20
 20
1.0000000000E+20
 30
1.0000000000E+20
  9
$PEXTMAX
 10
-1.0000000000E+20
 20
-1.0000000000E+20
 30
-1.0000000000E+20
  9
$PLIMMIN
 10
0.0
 20
0.0
  9
$PLIMMAX
 10
420.0
 20
297.0
  9
$UNITMODE
 70
     0
  9
$VISRETAIN
 70
     1
  9
$PLINEGEN
 70
     0
  9
$PSLTSCALE
 70
     1
  9
$TREEDEPTH
 70
  3020
  9
$CMLSTYLE
  2
Standard
  9
$CMLJUST
 70
     0
  9
$CMLSCALE
 40
20.0
  9
$PROXYGRAPHICS
 70
     1
  9
$MEASUREMENT
 70
     1
  9
$CELWEIGHT
370
    -1
  9
$ENDCAPS
280
     0
  9
$JOINSTYLE
280
     0
  9
$LWDISPLAY
290
     1
  9
$INSUNITS
 70
     4
  9
$HYPERLINKBASE
  1

  9
$STYLESHEET
  1

  9
$XEDIT
290
     1
  9
$CEPSNTYPE
380
     0
  9
$PSTYLEMODE
290
     1
  9
$FINGERPRINTGUID
  2
{ccb8aac1-c697-4052-b4d6-16ddfa76cb0a}
  9
$VERSIONGUID
  2
{FAEB1C32-E019-11D5-929B-00C0DF256EC4}
  9
$EXTNAMES
290
     1
  9
$PSVPSCALE
 40
0.0
  9
$OLESTARTUP
290
     0
  0
ENDSEC
  0
SECTION
  2
CLASSES
  0
CLASS
  1
ACDBDICTIONARYWDFLT
  2
AcDbDictionaryWithDefault
  3
ObjectDBX Classes
 90
        0
280
     0
281
     0
  0
CLASS
  1
VISUALSTYLE
  2
AcDbVisualStyle
  3
ObjectDBX Classes
 90
     4095
280
     0
281
     0
  0
CLASS
  1
MATERIAL
  2
AcDbMaterial
  3
ObjectDBX Classes
 90
     1153
280
     0
281
     0
  0
CLASS
  1
SCALE
  2
AcDbScale
  3
ObjectDBX Classes
 90
     1153
280
     0
281
     0
  0
CLASS
  1
TABLESTYLE
  2
AcDbTableStyle
  3
ObjectDBX Classes
 90
     4095
280
     0
281
     0
  0
CLASS
  1
MLEADERSTYLE
  2
AcDbMLeaderStyle
  3
ACDB_MLEADERSTYLE_CLASS
 90
     4095
280
     0
281
     0
  0
CLASS
  1
SUN
  2
AcDbSun
  3
SCENEOE
 90
     1153
280
     0
281
     0
  0
CLASS
  1
ACDBPLACEHOLDER
  2
AcDbPlaceHolder
  3
ObjectDBX Classes
 90
        0
280
     0
281
     0
  0
CLASS
  1
LAYOUT
  2
AcDbLayout
  3
ObjectDBX Classes
 90
        0
280
     0
281
     0
  0
ENDSEC
  0
SECTION
  2
TABLES
  0
TABLE
  2
VPORT
  5
8
330
0
100
AcDbSymbolTable
 70
     1
  0
VPORT
  5
29
330
8
100
AcDbSymbolTableRecord
100
AcDbViewportTableRecord
  2
*Active
 70
     0
 10
0.0
 20
0.0
 11
1.0
 21
1.0
 12
23.1822959844
 22
25.1590151875
 13
0.0
 23
0.0
 14
10.0
 24
10.0
 15
10.0
 25
10.0
 16
0.0
 26
0.0
 36
1.0
 17
0.0
 27
0.0
 37
0.0
 40
50.0876688001
 41
0.9441821698
 42
50.0
 43
0.0
 44
0.0
 50
0.0
 51
0.0
 71
     0
 72
   100
 73
     1
 74
     3
 75
     0
 76
     0
 77
     0
 78
     0
281
     0
 65
     1
110
0.0
120
0.0
130
0.0
111
1.0
121
0.0
131
0.0
112
0.0
122
1.0
132
0.0
 79
     0
146
0.0
  0
ENDTAB
  0
TABLE
  2
LTYPE
  5
5
330
0
100
AcDbSymbolTable
 70
     6
  0
LTYPE
  5
14
330
5
100
AcDbSymbolTableRecord
100
AcDbLinetypeTableRecord
  2
ByBlock
 70
     0
  3

 72
    65
 73
     0
 40
0.0
  0
LTYPE
  5
15
330
5
100
AcDbSymbolTableRecord
100
AcDbLinetypeTableRecord
  2
ByLayer
 70
     0
  3

 72
    65
 73
     0
 40
0.0
  0
LTYPE
  5
16
330
5
100
AcDbSymbolTableRecord
100
AcDbLinetypeTableRecord
  2
Continuous
 70
     0
  3
Solid line
 72
    65
 73
     0
 40
0.0
  0
LTYPE
  5
5E
330
5
100
AcDbSymbolTableRecord
100
AcDbLinetypeTableRecord
  2
HIDDEN
 70
     0
  3
Hidden __ __ __ __ __ __ __ __ __ __ __ __ __ __
 72
    65
 73
     2
 40
1.905
 49
1.27
 74
     0
 49
-0.635
 74
     0
  0
LTYPE
  5
5F
330
5
100
AcDbSymbolTableRecord
100
AcDbLinetypeTableRecord
  2
PHANTOM
 70
     0
  3
Phantom ______  __  __  ______  __  __  ______
 72
    65
 73
     6
 40
12.7
 49
6.35
 74
     0
 49
-1.27
 74
     0
 49
1.27
 74
     0
 49
-1.27
 74
     0
 49
1.27
 74
     0
 49
-1.27
 74
     0
  0
LTYPE
  5
60
330
5
100
AcDbSymbolTableRecord
100
AcDbLinetypeTableRecord
  2
CENTER
 70
     0
  3
Center ____ _ ____ _ ____ _ ____ _ ____ _ ____
 72
    65
 73
     4
 40
10.16
 49
6.35
 74
     0
 49
-1.27
 74
     0
 49
1.27
 74
     0
 49
-1.27
 74
     0
  0
LTYPE
  5
61
330
5
100
AcDbSymbolTableRecord
100
AcDbLinetypeTableRecord
  2
CENTERX2
 70
     0
  3
Center (2x) ________  __  ________  __  _____
 72
    65
 73
     4
 40
20.32
 49
12.7
 74
     0
 49
-2.54
 74
     0
 49
2.54
 74
     0
 49
-2.54
 74
     0
  0
LTYPE
  5
62
330
5
100
AcDbSymbolTableRecord
100
AcDbLinetypeTableRecord
  2
DOT2
 70
     0
  3
Dot (.5x) ........................................
 72
    65
 73
     2
 40
0.635
 49
0.0
 74
     0
 49
-0.635
 74
     0
  0
ENDTAB
  0
TABLE
  2
LAYER
  5
2
330
0
100
AcDbSymbolTable
 70
     1
  0
LAYER
  5
10
330
2
100
AcDbSymbolTableRecord
100
AcDbLayerTableRecord
  2
0
 70
     0
 62
     7
  6
Continuous
370
    -3
390
F
  0
ENDTAB
  0
TABLE
  2
STYLE
  5
3
330
0
100
AcDbSymbolTable
 70
     2
  0
STYLE
  5
11
330
3
100
AcDbSymbolTableRecord
100
AcDbTextStyleTableRecord
  2
Standard
 70
     0
 40
0.0
 41
1.0
 50
0.0
 71
     0
 42
3.5
  3
txt
  4

  0
STYLE
  5
DA
330
3
100
AcDbSymbolTableRecord
100
AcDbTextStyleTableRecord
  2
SLDTEXTSTYLE0
 70
     0
 40
0.0
 41
0.7
 50
0.0
 71
     0
 42
3.5
  3
TXT
  4

  0
ENDTAB
  0
TABLE
  2
VIEW
  5
6
330
0
100
AcDbSymbolTable
 70
     0
  0
ENDTAB
  0
TABLE
  2
UCS
  5
7
330
0
100
AcDbSymbolTable
 70
     0
  0
ENDTAB
  0
TABLE
  2
APPID
  5
9
330
0
100
AcDbSymbolTable
 70
     1
  0
APPID
  5
12
330
9
100
AcDbSymbolTableRecord
100
AcDbRegAppTableRecord
  2
ACAD
 70
     0
  0
ENDTAB
  0
TABLE
  2
DIMSTYLE
  5
A
330
0
100
AcDbSymbolTable
 70
     1
100
AcDbDimStyleTable
  0
DIMSTYLE
105
27
330
A
100
AcDbSymbolTableRecord
100
AcDbDimStyleTableRecord
  2
ISO-25
 70
     0
 41
2.5
 42
0.625
 43
3.75
 44
1.25
 73
     0
 74
     0
 77
     1
 78
     8
140
2.5
141
2.5
143
0.0393700787
147
0.625
171
     3
172
     1
178
     0
271
     2
272
     2
274
     3
278
    44
283
     0
284
     8
340
11
  0
ENDTAB
  0
TABLE
  2
BLOCK_RECORD
  5
1
330
0
100
AcDbSymbolTable
 70
     1
  0
BLOCK_RECORD
  5
1F
330
1
100
AcDbSymbolTableRecord
100
AcDbBlockTableRecord
  2
*Model_Space
340
22
  0
BLOCK_RECORD
  5
1B
330
1
100
AcDbSymbolTableRecord
100
AcDbBlockTableRecord
  2
*Paper_Space
340
1E
  0
BLOCK_RECORD
  5
23
330
1
100
AcDbSymbolTableRecord
100
AcDbBlockTableRecord
  2
*Paper_Space0
340
26
  0
ENDTAB
  0
ENDSEC
  0
SECTION
  2
BLOCKS
  0
BLOCK
  5
20
330
1F
100
AcDbEntity
  8
0
100
AcDbBlockBegin
  2
*Model_Space
 70
     0
 10
0.0
 20
0.0
 30
0.0
  3
*Model_Space
  1

  0
ENDBLK
  5
21
330
1F
100
AcDbEntity
  8
0
100
AcDbBlockEnd
  0
BLOCK
  5
1C
330
1B
100
AcDbEntity
 67
     1
  8
0
100
AcDbBlockBegin
  2
*Paper_Space
 70
     0
 10
0.0
 20
0.0
 30
0.0
  3
*Paper_Space
  1

  0
ENDBLK
  5
1D
330
1B
100
AcDbEntity
 67
     1
  8
0
100
AcDbBlockEnd
  0
BLOCK
  5
24
330
23
100
AcDbEntity
  8
0
100
AcDbBlockBegin
  2
*Paper_Space0
 70
     0
 10
0.0
 20
0.0
 30
0.0
  3
*Paper_Space0
  1

  0
ENDBLK
  5
25
330
23
100
AcDbEntity
  8
0
100
AcDbBlockEnd
  0
ENDSEC
  0
SECTION
  2
ENTITIES
  0
SPLINE
  5
63
330
1F
100
AcDbEntity
  8
0
  6
Continuous
 62
     7
100
AcDbSpline
210
0.0
220
0.0
230
1.0
 70
     8
 71
     3
 72
     9
 73
     5
 74
     0
 42
0.00000001
 43
0.00000001
 40
0.0
 40
0.0
 40
0.0
 40
0.0
 40
0.547645271852689
 40
1.0
 40
1.0
 40
1.0
 40
1.0
 10
25.97129344940186
 20
22.68273603248306
 30
0.0
 10
26.15824797577934
 20
21.85828496674222
 30
0.0
 10
26.59450563185375
 20
21.31304929946491
 30
0.0
 10
26.427838308241
 20
21.4845592036432
 30
0.0
 10
26.59450563185375
 20
21.31304929946491
 30
0.0
  0
SPLINE
  5
64
330
1F
100
AcDbEntity
  8
0
  6
Continuous
 62
     7
100
AcDbSpline
210
0.0
220
0.0
230
1.0
 70
     8
 71
     3
 72
    12
 73
     8
 74
     0
 42
0.00000001
 43
0.00000001
 40
0.0
 40
0.0
 40
0.0
 40
0.0
 40
0.184710005573527
 40
0.3735360747504989
 40
0.560606513607307
 40
0.7806770142683701
 40
1.0
 40
1.0
 40
1.0
 40
1.0
 10
26.59450471401215
 20
21.31304929946491
 30
0.0
 10
29.27189355862875
 20
20.36092411659216
 30
0.0
 10
31.42694574933539
 20
18.41295170027125
 30
0.0
 10
33.05938766500333
 20
16.04276452650338
 30
0.0
 10
34.44258294328365
 20
12.95256015095174
 30
0.0
 10
34.91330628122443
 20
9.611411557383395
 30
0.0
 10
34.82683643093561
 20
10.74238038608282
 30
0.0
 10
34.91330628122443
 20
9.611411557383395
 30
0.0
  0
SPLINE
  5
65
330
1F
100
AcDbEntity
  8
0
  6
Continuous
 62
     7
100
AcDbSpline
210
0.0
220
0.0
230
1.0
 70
     8
 71
     3
 72
    13
 73
     9
 74
     0
 42
0.00000001
 43
0.00000001
 40
0.0
 40
0.0
 40
0.0
 40
0.0
 40
0.249511289587334
 40
0.3738058000446779
 40
0.4983632342586287
 40
0.7489764195537105
 40
0.8729597522697113
 40
1.0
 40
1.0
 40
1.0
 40
1.0
 10
34.91330146789551
 20
9.611411557383395
 30
0.0
 10
36.90357355385203
 20
8.30222303549647
 30
0.0
 10
37.41688391544471
 20
7.232254482652695
 30
0.0
 10
37.28034317837646
 20
6.050881856902277
 30
0.0
 10
35.90980284895238
 20
4.089501503388072
 30
0.0
 10
34.94861695095459
 20
3.398560751439262
 30
0.0
 10
33.73603940851975
 20
3.368821971087621
 30
0.0
 10
34.15789492519706
 20
3.322215547056884
 30
0.0
 10
33.73603940851975
 20
3.368821971087621
 30
0.0
  0
SPLINE
  5
66
330
1F
100
AcDbEntity
  8
0
  6
Continuous
 62
     7
100
AcDbSpline
210
0.0
220
0.0
230
1.0
 70
     8
 71
     3
 72
    11
 73
     7
 74
     0
 42
0.00000001
 43
0.00000001
 40
0.0
 40
0.0
 40
0.0
 40
0.0
 40
0.2790333690731409
 40
0.5589114699246379
 40
0.7798743663745497
 40
0.9999999999999999
 40
0.9999999999999999
 40
0.9999999999999999
 40
0.9999999999999999
 10
33.73602032661438
 20
3.368821971087621
 30
0.0
 10
30.82019112868262
 20
1.668583814936269
 30
0.0
 10
27.45134623344314
 20
1.332669239580827
 30
0.0
 10
24.82839165641681
 20
1.846874596010762
 30
0.0
 10
22.17089701391385
 20
1.679599528607367
 30
0.0
 10
23.06326399639362
 20
1.806076981999746
 30
0.0
 10
22.17089701391385
 20
1.679599528607367
 30
0.0
  0
SPLINE
  5
67
330
1F
100
AcDbEntity
  8
0
  6
Continuous
 62
     7
100
AcDbSpline
210
0.0
220
0.0
230
1.0
 70
     8
 71
     3
 72
    10
 73
     6
 74
     0
 42
0.00000001
 43
0.00000001
 40
0.0
 40
0.0
 40
0.0
 40
0.0
 40
0.3100028188815217
 40
0.5597585136261396
 40
1.0
 40
1.0
 40
1.0
 40
1.0
 10
25.97129344940186
 20
22.68273603248306
 30
0.0
 10
26.65890104645525
 20
22.95076443608132
 30
0.0
 10
27.23786450571681
 20
23.08611405224156
 30
0.0
 10
28.2854754180559
 20
23.11640315228431
 30
0.0
 10
27.93435999898936
 20
23.12587628175518
 30
0.0
 10
28.2854754180559
 20
23.11640315228431
 30
0.0
  0
SPLINE
  5
68
330
1F
100
AcDbEntity
  8
0
  6
Continuous
 62
     7
100
AcDbSpline
210
0.0
220
0.0
230
1.0
 70
     8
 71
     3
 72
    17
 73
    13
 74
     0
 42
0.00000001
 43
0.00000001
 40
0.0
 40
0.0
 40
0.0
 40
0.0
 40
0.0518543621072957
 40
0.1043257361043454
 40
0.18702359669169
 40
0.3737785767290217
 40
0.5618641737728266
 40
0.7492363132685081
 40
0.8425730757569989
 40
0.9354373248716262
 40
0.9614196917561942
 40
1.0
 40
1.0
 40
1.0
 40
1.0
 10
28.28547358512878
 20
23.11640315228432
 30
0.0
 10
29.57685820136881
 20
22.67462402202528
 30
0.0
 10
30.95262285661187
 20
22.55333881478129
 30
0.0
 10
33.12927931953141
 20
22.54078947714185
 30
0.0
 10
37.89896032327654
 20
23.72952766480343
 30
0.0
 10
42.00785792083813
 20
26.49095147583048
 30
0.0
 10
44.98060859175784
 20
30.42613543620851
 30
0.0
 10
45.41994080770068
 20
32.84325308631017
 30
0.0
 10
44.05420429916504
 20
34.87038908963017
 30
0.0
 10
43.87263643097048
 20
35.52972853204587
 30
0.0
 10
44.45046609969766
 20
36.36477283289703
 30
0.0
 10
44.17724709138118
 20
36.1034190957626
 30
0.0
 10
44.45046609969766
 20
36.36477283289703
 30
0.0
  0
SPLINE
  5
69
330
1F
100
AcDbEntity
  8
0
  6
Continuous
 62
     7
100
AcDbSpline
210
0.0
220
0.0
230
1.0
 70
     8
 71
     3
 72
     9
 73
     5
 74
     0
 42
0.00000001
 43
0.00000001
 40
0.0
 40
0.0
 40
0.0
 40
0.0
 40
0.5598431496895313
 40
1.0
 40
1.0
 40
1.0
 40
1.0
 10
44.45046186447144
 20
36.36477283289703
 30
0.0
 10
45.49732891650636
 20
36.85116271511254
 30
0.0
 10
46.36459196881822
 20
37.11859695112326
 30
0.0
 10
46.07226172944493
 20
37.03788653419412
 30
0.0
 10
46.36459196881822
 20
37.11859695112327
 30
0.0
  0
SPLINE
  5
6A
330
1F
100
AcDbEntity
  8
0
  6
Continuous
 62
     7
100
AcDbSpline
210
0.0
220
0.0
230
1.0
 70
     8
 71
     3
 72
     9
 73
     5
 74
     0
 42
0.00000001
 43
0.00000001
 40
0.0
 40
0.0
 40
0.0
 40
0.0
 40
0.5619720966474355
 40
1.0
 40
1.0
 40
1.0
 40
1.0
 10
46.36457562446594
 20
37.11859695112326
 30
0.0
 10
45.79852486914482
 20
40.27975247920112
 30
0.0
 10
44.24616896502541
 20
42.24340526446255
 30
0.0
 10
44.84473997017859
 20
41.62537877256496
 30
0.0
 10
44.24616896502541
 20
42.24340526446255
 30
0.0
  0
SPLINE
  5
6B
330
1F
100
AcDbEntity
  8
0
  6
Continuous
 62
     7
100
AcDbSpline
210
0.0
220
0.0
230
1.0
 70
     8
 71
     3
 72
    13
 73
     9
 74
     0
 42
0.00000001
 43
0.00000001
 40
0.0
 40
0.0
 40
0.0
 40
0.0
 40
0.0608334133208512
 40
0.1244299681553708
 40
0.2497575426685711
 40
0.5014237725522633
 40
0.7490085461843725
 40
1.0
 40
1.0
 40
1.0
 40
1.0
 10
44.24616694450378
 20
42.24340526446255
 30
0.0
 10
43.15607152978436
 20
42.42712893088861
 30
0.0
 10
42.06438360008467
 20
42.047897091083
 30
0.0
 10
40.1321259073293
 20
40.84240408144858
 30
0.0
 10
37.16039373774132
 20
37.36621975665877
 30
0.0
 10
33.80386805507466
 20
34.37023971784144
 30
0.0
 10
29.5149647081891
 20
32.81835322043639
 30
0.0
 10
31.00690303512712
 20
33.22062539596881
 30
0.0
 10
29.5149647081891
 20
32.81835322043639
 30
0.0
  0
SPLINE
  5
6C
330
1F
100
AcDbEntity
  8
0
  6
Continuous
 62
     7
100
AcDbSpline
210
0.0
220
0.0
230
1.0
 70
     8
 71
     3
 72
     9
 73
     5
 74
     0
 42
0.00000001
 43
0.00000001
 40
0.0
 40
0.0
 40
0.0
 40
0.0
 40
0.556170573710598
 40
1.0
 40
1.0
 40
1.0
 40
1.0
 10
29.51495349407196
 20
32.81835322043639
 30
0.0
 10
29.68664641858334
 20
34.42846616150757
 30
0.0
 10
29.4742045782274
 20
35.70305301621364
 30
0.0
 10
29.57086821842184
 20
35.27895253791252
 30
0.0
 10
29.4742045782274
 20
35.70305301621364
 30
0.0
  0
SPLINE
  5
6D
330
1F
100
AcDbEntity
  8
0
  6
Continuous
 62
     7
100
AcDbSpline
210
0.0
220
0.0
230
1.0
 70
     8
 71
     3
 72
    16
 73
    12
 74
     0
 42
0.00000001
 43
0.00000001
 40
0.0
 40
0.0
 40
0.0
 40
0.0
 40
0.3717362568182906
 40
0.7483869538114315
 40
0.8367840045319181
 40
0.8882347974705972
 40
0.9208399630122932
 40
0.9415159359660884
 40
0.9536930474060697
 40
0.9679214551901838
 40
1.0
 40
1.0
 40
1.0
 40
1.0
 10
29.47419881820679
 20
35.70305301621364
 30
0.0
 10
32.7420731066132
 20
40.78387124635715
 30
0.0
 10
33.95725006136036
 20
46.78290036005732
 30
0.0
 10
33.99215841240888
 20
48.2189968862787
 30
0.0
 10
33.7802234789451
 20
49.02780617252975
 30
0.0
 10
33.51450463053575
 20
49.48622119773476
 30
0.0
 10
33.26412594728225
 20
49.7102902315787
 30
0.0
 10
33.06773463606693
 20
49.73457856663939
 30
0.0
 10
32.87671192779501
 20
49.60429329538781
 30
0.0
 10
32.51317578427184
 20
49.23066716342813
 30
0.0
 10
32.6299287322594
 20
49.3544485479318
 30
0.0
 10
32.51317578427184
 20
49.23066716342813
 30
0.0
  0
SPLINE
  5
6E
330
1F
100
AcDbEntity
  8
0
  6
Continuous
 62
     7
100
AcDbSpline
210
0.0
220
0.0
230
1.0
 70
     8
 71
     3
 72
     9
 73
     5
 74
     0
 42
0.00000001
 43
0.00000001
 40
0.0
 40
0.0
 40
0.0
 40
0.0
 40
0.5592237287200484
 40
1.0
 40
1.0
 40
1.0
 40
1.0
 10
32.51317143440247
 20
49.23066716342812
 30
0.0
 10
29.53145974562843
 20
46.87971595902083
 30
0.0
 10
26.59450563185375
 20
46.30422000805915
 30
0.0
 10
27.61659749206497
 20
46.40220282544088
 30
0.0
 10
26.59450563185375
 20
46.30422000805915
 30
0.0
  0
SPLINE
  5
6F
330
1F
100
AcDbEntity
  8
0
  6
Continuous
 62
     7
100
AcDbSpline
210
0.0
220
0.0
230
1.0
 70
     8
 71
     3
 72
     9
 73
     5
 74
     0
 42
0.00000001
 43
0.00000001
 40
0.0
 40
0.0
 40
0.0
 40
0.0
 40
0.55927124695991
 40
1.0
 40
1.0
 40
1.0
 40
1.0
 10
26.59450471401215
 20
46.30422000805915
 30
0.0
 10
24.85686382074859
 20
46.05604691513146
 30
0.0
 10
23.54918092373553
 20
45.60517570862115
 30
0.0
 10
23.98054676273796
 20
45.77421916319928
 30
0.0
 10
23.54918092373553
 20
45.60517570862115
 30
0.0
  0
SPLINE
  5
70
330
1F
100
AcDbEntity
  8
0
  6
Continuous
 62
     7
100
AcDbSpline
210
0.0
220
0.0
230
1.0
 70
     8
 71
     3
 72
    12
 73
     8
 74
     0
 42
0.00000001
 43
0.00000001
 40
0.0
 40
0.0
 40
0.0
 40
0.0
 40
0.1850230655716703
 40
0.3710640888503743
 40
0.5586238310153228
 40
0.775479489975296
 40
1.0
 40
1.0
 40
1.0
 40
1.0
 10
21.36953175067902
 20
44.87079560040513
 30
0.0
 10
18.29660423844354
 20
46.17649950167477
 30
0.0
 10
14.94252409035364
 20
46.32105069446831
 30
0.0
 10
11.60819825589036
 20
45.73985774453383
 30
0.0
 10
8.051330466166178
 20
44.10820962899973
 30
0.0
 10
5.388605624217825
 20
41.05450018908899
 30
0.0
 10
6.190283340638616
 20
42.17452071762221
 30
0.0
 10
5.388605624217825
 20
41.05450018908899
 30
0.0
  0
SPLINE
  5
71
330
1F
100
AcDbEntity
  8
0
  6
Continuous
 62
     7
100
AcDbSpline
210
0.0
220
0.0
230
1.0
 70
     8
 71
     3
 72
    10
 73
     6
 74
     0
 42
0.00000001
 43
0.00000001
 40
0.0
 40
0.0
 40
0.0
 40
0.0
 40
0.2778559067955191
 40
0.5619029814734552
 40
1.0
 40
1.0
 40
1.0
 40
1.0
 10
2.164147794246674
 20
30.07162114507522
 30
0.0
 10
4.095231670384789
 20
27.46202041758458
 30
0.0
 10
6.853348784791523
 20
25.61627218198344
 30
0.0
 10
11.60436405137407
 20
23.71152258207051
 30
0.0
 10
10.0003241712089
 20
24.28030367889968
 30
0.0
 10
11.60436405137407
 20
23.71152258207051
 30
0.0
  0
LINE
  5
72
330
1F
100
AcDbEntity
  8
0
  6
Continuous
 62
     7
100
AcDbLine
 10
0.0
 20
11.408838546
 30
0.0
 11
0.0
 21
11.4137865455
 31
0.0
  0
SPLINE
  5
73
330
1F
100
AcDbEntity
  8
0
  6
Continuous
 62
     7
100
AcDbSpline
210
0.0
220
0.0
230
1.0
 70
     8
 71
     3
 72
     9
 73
     5
 74
     0
 42
0.00000001
 43
0.00000001
 40
0.0
 40
0.0
 40
0.0
 40
0.0
 40
0.5599713531623
 40
1.0
 40
1.0
 40
1.0
 40
1.0
 10
32.8841507434845
 20
30.75453637840508
 30
0.0
 10
28.7995882302726
 20
26.48863353156828
 30
0.0
 10
24.37211949646811
 20
25.09702879967761
 30
0.0
 10
25.93725329721471
 20
25.41711285915068
 30
0.0
 10
24.37211949646811
 20
25.09702879967761
 30
0.0
  0
SPLINE
  5
74
330
1F
100
AcDbEntity
  8
0
  6
Continuous
 62
     7
100
AcDbSpline
210
0.0
220
0.0
230
1.0
 70
     8
 71
     3
 72
     9
 73
     5
 74
     0
 42
0.00000001
 43
0.00000001
 40
0.0
 40
0.0
 40
0.0
 40
0.0
 40
0.5579589911289932
 40
1.0
 40
1.0
 40
1.0
 40
1.0
 10
24.37211573123932
 20
25.09702879967761
 30
0.0
 10
25.99352381811799
 20
23.85018798528388
 30
0.0
 10
27.44553383127768
 20
23.13080850395947
 30
0.0
 10
26.94919347720809
 20
23.35082580463537
 30
0.0
 10
27.44553383127768
 20
23.13080850395947
 30
0.0
  0
SPLINE
  5
75
330
1F
100
AcDbEntity
  8
0
  6
Continuous
 62
     7
100
AcDbSpline
210
0.0
220
0.0
230
1.0
 70
     8
 71
     3
 72
     9
 73
     5
 74
     0
 42
0.00000001
 43
0.00000001
 40
0.0
 40
0.0
 40
0.0
 40
0.0
 40
0.5580226071839909
 40
1.0
 40
1.0
 40
1.0
 40
1.0
 10
29.47419881820679
 20
35.70305301621364
 30
0.0
 10
27.87455965564256
 20
39.91898490672355
 30
0.0
 10
25.63396637385826
 20
42.70020957444126
 30
0.0
 10
26.45254986375866
 20
41.81423643500677
 30
0.0
 10
25.63396637385827
 20
42.70020957444127
 30
0.0
  0
SPLINE
  5
76
330
1F
100
AcDbEntity
  8
0
  6
Continuous
 62
     7
100
AcDbSpline
210
0.0
220
0.0
230
1.0
 70
     8
 71
     3
 72
     9
 73
     5
 74
     0
 42
0.00000001
 43
0.00000001
 40
0.0
 40
0.0
 40
0.0
 40
0.0
 40
0.5712074242737253
 40
1.0
 40
1.0
 40
1.0
 40
1.0
 10
20.60402929782867
 20
45.84361708856247
 30
0.0
 10
21.17371907614879
 20
45.38413246804873
 30
0.0
 10
21.36953970540676
 20
44.87079560040513
 30
0.0
 10
21.32083418458856
 20
45.0539435319124
 30
0.0
 10
21.36953970540676
 20
44.87079560040513
 30
0.0
  0
SPLINE
  5
77
330
1F
100
AcDbEntity
  8
0
  6
Continuous
 62
     7
100
AcDbSpline
210
0.0
220
0.0
230
1.0
 70
     8
 71
     3
 72
     9
 73
     5
 74
     0
 42
0.00000001
 43
0.00000001
 40
0.0
 40
0.0
 40
0.0
 40
0.0
 40
0.5557257014313487
 40
1.0
 40
1.0
 40
1.0
 40
1.0
 10
20.60402929782867
 20
45.84361708856247
 30
0.0
 10
22.34212693372104
 20
45.35159976638797
 30
0.0
 10
23.23544321547904
 20
44.21693197721741
 30
0.0
 10
22.9744128988761
 20
44.650046520564
 30
0.0
 10
23.23544321547904
 20
44.21693197721741
 30
0.0
  0
SPLINE
  5
78
330
1F
100
AcDbEntity
  8
0
  6
Continuous
 62
     7
100
AcDbSpline
210
0.0
220
0.0
230
1.0
 70
     8
 71
     3
 72
     9
 73
     5
 74
     0
 42
0.00000001
 43
0.00000001
 40
0.0
 40
0.0
 40
0.0
 40
0.0
 40
0.5593212013527803
 40
1.0
 40
1.0
 40
1.0
 40
1.0
 10
23.23544025421143
 20
44.21693197721741
 30
0.0
 10
23.02631132425246
 20
45.04252270558282
 30
0.0
 10
22.48389816518028
 20
45.43754782847347
 30
0.0
 10
22.69243919496058
 20
45.32463413626093
 30
0.0
 10
22.48389816518028
 20
45.43754782847347
 30
0.0
  0
SPLINE
  5
79
330
1F
100
AcDbEntity
  8
0
  6
Continuous
 62
     7
100
AcDbSpline
210
0.0
220
0.0
230
1.0
 70
     8
 71
     3
 72
    20
 73
    16
 74
     0
 42
0.00000001
 43
0.00000001
 40
0.0
 40
0.0
 40
0.0
 40
0.0
 40
0.0168548890727946
 40
0.0369411079458957
 40
0.0932949718078014
 40
0.163868025401737
 40
0.2043027925532319
 40
0.213020901395884
 40
0.2188980508868838
 40
0.2273710857267127
 40
0.2371569260001731
 40
0.3975370965295747
 40
0.4999694299738461
 40
0.668803596661714
 40
1.0
 40
1.0
 40
1.0
 40
1.0
 10
22.48388528823853
 20
45.43754782847347
 30
0.0
 10
22.54648014232668
 20
45.4965247056145
 30
0.0
 10
22.56254862601512
 20
45.59774740405774
 30
0.0
 10
22.50076132536093
 20
45.87857679724936
 30
0.0
 10
22.37747541815874
 20
46.21691454467555
 30
0.0
 10
22.32080313832806
 20
46.41529729564278
 30
0.0
 10
22.32292254189532
 20
46.45973102369605
 30
0.0
 10
22.34296116910148
 20
46.48204126138905
 30
0.0
 10
22.38619052244105
 20
46.48142453680142
 30
0.0
 10
22.43321034954429
 20
46.46462048773036
 30
0.0
 10
23.09943208825061
 20
45.9894031609841
 30
0.0
 10
23.4997491497538
 20
45.65336459928405
 30
0.0
 10
24.01877671564871
 20
44.96579276840496
 30
0.0
 10
24.65705191123275
 20
43.40103107711331
 30
0.0
 10
24.47823936106371
 20
43.93730685690551
 30
0.0
 10
24.65705191123275
 20
43.40103107711331
 30
0.0
  0
SPLINE
  5
7A
330
1F
100
AcDbEntity
  8
0
  6
Continuous
 62
     7
100
AcDbSpline
210
0.0
220
0.0
230
1.0
 70
     8
 71
     3
 72
     9
 73
     5
 74
     0
 42
0.00000001
 43
0.00000001
 40
0.0
 40
0.0
 40
0.0
 40
0.0
 40
0.5604088982632932
 40
1.0
 40
1.0
 40
1.0
 40
1.0
 10
29.51495349407196
 20
32.81835322043639
 30
0.0
 10
25.03338121274324
 20
30.0225961155763
 30
0.0
 10
22.48389816518028
 20
26.75648236858579
 30
0.0
 10
23.26295804515121
 20
27.92380709674595
 30
0.0
 10
22.48389816518029
 20
26.7564823685858
 30
0.0
  0
SPLINE
  5
7B
330
1F
100
AcDbEntity
  8
0
  6
Continuous
 62
     7
100
AcDbSpline
210
0.0
220
0.0
230
1.0
 70
     8
 71
     3
 72
    11
 73
     7
 74
     0
 42
0.00000001
 43
0.00000001
 40
0.0
 40
0.0
 40
0.0
 40
0.0
 40
0.2499896911069238
 40
0.5008640995909953
 40
0.7501911959681846
 40
1.0
 40
1.0
 40
1.0
 40
1.0
 10
2.164147794246674
 20
30.07162114507522
 30
0.0
 10
3.442862543186513
 20
32.18355857816606
 30
0.0
 10
4.353810935476829
 20
34.48763840886228
 30
0.0
 10
4.405850750829229
 20
36.94942927813378
 30
0.0
 10
3.152995907537058
 20
39.07473586305211
 30
0.0
 10
3.669105430123184
 20
38.39978809135998
 30
0.0
 10
3.152995907537058
 20
39.07473586305211
 30
0.0
  0
SPLINE
  5
7C
330
1F
100
AcDbEntity
  8
0
  6
Continuous
 62
     7
100
AcDbSpline
210
0.0
220
0.0
230
1.0
 70
     8
 71
     3
 72
     9
 73
     5
 74
     0
 42
0.00000001
 43
0.00000001
 40
0.0
 40
0.0
 40
0.0
 40
0.0
 40
0.5585609141061714
 40
1.0
 40
1.0
 40
1.0
 40
1.0
 10
24.65704083442688
 20
43.40103107711331
 30
0.0
 10
24.8399947732556
 20
43.79089718629533
 30
0.0
 10
24.78533949713167
 20
44.12683697814312
 30
0.0
 10
24.81821712306768
 20
44.01281003961056
 30
0.0
 10
24.78533949713167
 20
44.12683697814312
 30
0.0
  0
SPLINE
  5
7D
330
1F
100
AcDbEntity
  8
0
  6
Continuous
 62
     7
100
AcDbSpline
210
0.0
220
0.0
230
1.0
 70
     8
 71
     3
 72
    18
 73
    14
 74
     0
 42
0.00000001
 43
0.00000001
 40
0.0
 40
0.0
 40
0.0
 40
0.0
 40
0.0003420589898115
 40
0.0007894123521098
 40
0.0086324697595167
 40
0.1082641630771374
 40
0.2547512389350552
 40
0.2719778775798728
 40
0.2947008107295412
 40
0.3459146473148829
 40
0.4385776419956727
 40
0.7252696558993743
 40
1.0
 40
1.0
 40
1.0
 40
1.0
 10
24.78532493114471
 20
44.12683697814312
 30
0.0
 10
24.78648037860029
 20
44.12719068823923
 30
0.0
 10
24.78729013529935
 20
44.12854780948565
 30
0.0
 10
24.78570719314362
 20
44.15620933348508
 30
0.0
 10
24.70297059596236
 20
44.49831058404624
 30
0.0
 10
24.62784157617312
 20
45.01031552747017
 30
0.0
 10
24.67884804350562
 20
45.04350822777656
 30
0.0
 10
24.75901577839211
 20
45.04760172067047
 30
0.0
 10
24.93584719976801
 20
45.00935380230501
 30
0.0
 10
25.21618243681631
 20
44.84033448149454
 30
0.0
 10
25.56689108773966
 20
43.89021232843829
 30
0.0
 10
25.49126146200868
 20
42.92263735099318
 30
0.0
 10
25.53732663628919
 20
43.23878607545064
 30
0.0
 10
25.49126146200868
 20
42.92263735099318
 30
0.0
  0
SPLINE
  5
7E
330
1F
100
AcDbEntity
  8
0
  6
Continuous
 62
     7
100
AcDbSpline
210
0.0
220
0.0
230
1.0
 70
     8
 71
     3
 72
     9
 73
     5
 74
     0
 42
0.00000001
 43
0.00000001
 40
0.0
 40
0.0
 40
0.0
 40
0.0
 40
0.5397283369931823
 40
1.0
 40
1.0
 40
1.0
 40
1.0
 10
25.49125254154205
 20
42.92263735099318
 30
0.0
 10
25.51639157258898
 20
42.76641837471795
 30
0.0
 10
25.63396637385826
 20
42.70020957444126
 30
0.0
 10
25.58739994497759
 20
42.71713853570021
 30
0.0
 10
25.63396637385826
 20
42.70020957444126
 30
0.0
  0
SPLINE
  5
7F
330
1F
100
AcDbEntity
  8
0
  6
Continuous
 62
     7
100
AcDbSpline
210
0.0
220
0.0
230
1.0
 70
     8
 71
     3
 72
    12
 73
     8
 74
     0
 42
0.00000001
 43
0.00000001
 40
0.0
 40
0.0
 40
0.0
 40
0.0
 40
0.1255937346191686
 40
0.2502393061398081
 40
0.6237765163387504
 40
0.8127508482347193
 40
1.0
 40
1.0
 40
1.0
 40
1.0
 10
3.152994439005852
 20
39.07473586305211
 30
0.0
 10
1.744271705967689
 20
38.92659056696729
 30
0.0
 10
0.7536354551703627
 20
37.92914090949544
 30
0.0
 10
0.2398951951590987
 20
33.74769615904966
 30
0.0
 10
0.813329521672408
 20
31.69496672921989
 30
0.0
 10
2.164149163733342
 20
30.07162114507522
 30
0.0
 10
1.65251775049078
 20
30.57980085713458
 30
0.0
 10
2.164149163733342
 20
30.07162114507522
 30
0.0
  0
SPLINE
  5
80
330
1F
100
AcDbEntity
  8
0
  6
Continuous
 62
     7
100
AcDbSpline
210
0.0
220
0.0
230
1.0
 70
     8
 71
     3
 72
     9
 73
     5
 74
     0
 42
0.00000001
 43
0.00000001
 40
0.0
 40
0.0
 40
0.0
 40
0.0
 40
0.5372456385074609
 40
1.0
 40
1.0
 40
1.0
 40
1.0
 10
3.401624038815498
 20
38.87567408172783
 30
0.0
 10
3.298801121796432
 20
39.42381271051428
 30
0.0
 10
3.577220453558783
 20
39.8152714852308
 30
0.0
 10
3.456109991106107
 20
39.6910075933534
 30
0.0
 10
3.577220453558784
 20
39.8152714852308
 30
0.0
  0
SPLINE
  5
81
330
1F
100
AcDbEntity
  8
0
  6
Continuous
 62
     7
100
AcDbSpline
210
0.0
220
0.0
230
1.0
 70
     8
 71
     3
 72
    10
 73
     6
 74
     0
 42
0.00000001
 43
0.00000001
 40
0.0
 40
0.0
 40
0.0
 40
0.0
 40
0.247243143507121
 40
0.502209173397941
 40
0.9999999999999999
 40
0.9999999999999999
 40
0.9999999999999999
 40
0.9999999999999999
 10
3.577219322323799
 20
39.8152714852308
 30
0.0
 10
4.336782857874662
 20
39.83066654963257
 30
0.0
 10
5.008688371547683
 20
39.42775577494733
 30
0.0
 10
5.713739265886151
 20
38.07034706645771
 30
0.0
 10
5.542243585161761
 20
38.56464749248396
 30
0.0
 10
5.713739265886151
 20
38.07034706645771
 30
0.0
  0
LINE
  5
82
330
1F
100
AcDbEntity
  8
0
  6
Continuous
 62
     7
100
AcDbLine
 10
0.0
 20
11.408838546
 30
0.0
 11
0.0
 21
11.4137865455
 31
0.0
  0
SPLINE
  5
83
330
1F
100
AcDbEntity
  8
0
  6
Continuous
 62
     7
100
AcDbSpline
210
0.0
220
0.0
230
1.0
 70
     8
 71
     3
 72
    11
 73
     7
 74
     0
 42
0.00000001
 43
0.00000001
 40
0.0
 40
0.0
 40
0.0
 40
0.0
 40
0.2442177445718928
 40
0.4928774886108442
 40
0.7366168937212487
 40
1.0
 40
1.0
 40
1.0
 40
1.0
 10
4.14116308093071
 20
40.10116577487688
 30
0.0
 10
4.107392557185238
 20
40.61492423936496
 30
0.0
 10
4.396485266685242
 20
41.05223937009654
 30
0.0
 10
4.869777990781188
 20
41.25235130677132
 30
0.0
 10
5.388605624217824
 20
41.05450018908899
 30
0.0
 10
5.217882565500822
 20
41.15325194604459
 30
0.0
 10
5.388605624217824
 20
41.05450018908899
 30
0.0
  0
SPLINE
  5
84
330
1F
100
AcDbEntity
  8
0
  6
Continuous
 62
     7
100
AcDbSpline
210
0.0
220
0.0
230
1.0
 70
     8
 71
     3
 72
     9
 73
     5
 74
     0
 42
0.00000001
 43
0.00000001
 40
0.0
 40
0.0
 40
0.0
 40
0.0
 40
0.5587336352911534
 40
1.0
 40
1.0
 40
1.0
 40
1.0
 10
5.388602614402771
 20
41.05450018908899
 30
0.0
 10
5.807697229149281
 20
40.5029277058353
 30
0.0
 10
6.049945072458518
 20
40.0123936338644
 30
0.0
 10
5.975721899254595
 20
40.17994429275141
 30
0.0
 10
6.049945072458518
 20
40.0123936338644
 30
0.0
  0
SPLINE
  5
85
330
1F
100
AcDbEntity
  8
0
  6
Continuous
 62
     7
100
AcDbSpline
210
0.0
220
0.0
230
1.0
 70
     8
 71
     3
 72
    17
 73
    13
 74
     0
 42
0.00000001
 43
0.00000001
 40
0.0
 40
0.0
 40
0.0
 40
0.0
 40
0.1854509946544215
 40
0.3721702717454597
 40
0.4366153696941913
 40
0.4657328961939212
 40
0.4984960489541634
 40
0.6813137862878518
 40
0.7744110495928285
 40
0.873445689322602
 40
0.9350592239761181
 40
1.0
 40
1.0
 40
1.0
 40
1.0
 10
2.447491511702538
 20
34.34930523379449
 30
0.0
 10
1.593200876237795
 20
33.38219965863382
 30
0.0
 10
1.477262183531088
 20
32.08816844078384
 30
0.0
 10
1.794705347441947
 20
31.77145527330901
 30
0.0
 10
1.996042928698876
 20
31.79406541856667
 30
0.0
 10
2.166219711959162
 20
31.94575627799227
 30
0.0
 10
2.977943969247416
 20
32.9251738410117
 30
0.0
 10
3.357118486634362
 20
33.45038595676655
 30
0.0
 10
3.254646548047542
 20
34.13181893230386
 30
0.0
 10
2.898838328132866
 20
34.37097655316492
 30
0.0
 10
2.447492776464548
 20
34.34930523379449
 30
0.0
 10
2.600690131493151
 20
34.37713555659971
 30
0.0
 10
2.447492776464548
 20
34.34930523379449
 30
0.0
  0
SPLINE
  5
86
330
1F
100
AcDbEntity
  8
0
  6
Continuous
 62
     7
100
AcDbSpline
210
0.0
220
0.0
230
1.0
 70
     8
 71
     3
 72
    13
 73
     9
 74
     0
 42
0.00000001
 43
0.00000001
 40
0.0
 40
0.0
 40
0.0
 40
0.0
 40
0.185400954689226
 40
0.3743804723130008
 40
0.5653630105838063
 40
0.7528197972733524
 40
0.8765330051541026
 40
1.0
 40
1.0
 40
1.0
 40
1.0
 10
14.43911343812943
 20
37.90328434476402
 30
0.0
 10
11.12195230202556
 20
37.60161994577366
 30
0.0
 10
8.082198538319622
 20
36.08937702159831
 30
0.0
 10
5.51512281395581
 20
33.81281140404201
 30
0.0
 10
3.890739968091896
 20
30.86266740896554
 30
0.0
 10
3.857680967678125
 20
28.64032442909097
 30
0.0
 10
5.244140317898619
 20
26.90885437432757
 30
0.0
 10
4.67416758608235
 20
27.43996739545724
 30
0.0
 10
5.244140317898619
 20
26.90885437432757
 30
0.0
  0
SPLINE
  5
87
330
1F
100
AcDbEntity
  8
0
  6
Continuous
 62
     7
100
AcDbSpline
210
0.0
220
0.0
230
1.0
 70
     8
 71
     3
 72
    11
 73
     7
 74
     0
 42
0.00000001
 43
0.00000001
 40
0.0
 40
0.0
 40
0.0
 40
0.0
 40
0.278703541204218
 40
0.5550568008438121
 40
0.7765241619838908
 40
1.0
 40
1.0
 40
1.0
 40
1.0
 10
5.244139581918716
 20
26.90885437432757
 30
0.0
 10
8.191507892931702
 20
25.2327288957047
 30
0.0
 10
11.45727602777053
 20
24.43394429957068
 30
0.0
 10
14.1004777779016
 20
24.95624366148153
 30
0.0
 10
16.44062195378352
 20
26.34018842440565
 30
0.0
 10
15.68876944476673
 20
25.82385678552329
 30
0.0
 10
16.44062195378352
 20
26.34018842440565
 30
0.0
  0
SPLINE
  5
88
330
1F
100
AcDbEntity
  8
0
  6
Continuous
 62
     7
100
AcDbSpline
210
0.0
220
0.0
230
1.0
 70
     8
 71
     3
 72
    12
 73
     8
 74
     0
 42
0.00000001
 43
0.00000001
 40
0.0
 40
0.0
 40
0.0
 40
0.0
 40
0.2449131629467786
 40
0.4998757968353688
 40
0.7467236459503013
 40
0.8667957389760176
 40
1.0
 40
1.0
 40
1.0
 40
1.0
 10
16.44061505794525
 20
26.34018842440565
 30
0.0
 10
18.29995066707828
 20
29.31112115069879
 30
0.0
 10
18.75447817359686
 20
32.9313027771865
 30
0.0
 10
17.57558017134696
 20
36.26125829872048
 30
0.0
 10
16.27242059894612
 20
37.38118620050532
 30
0.0
 10
14.4391150768908
 20
37.90328434476402
 30
0.0
 10
15.07532302519455
 20
37.78679561505742
 30
0.0
 10
14.4391150768908
 20
37.90328434476402
 30
0.0
  0
SPLINE
  5
89
330
1F
100
AcDbEntity
  8
0
  6
Continuous
 62
     7
100
AcDbSpline
210
0.0
220
0.0
230
1.0
 70
     8
 71
     3
 72
    15
 73
    11
 74
     0
 42
0.00000001
 43
0.00000001
 40
0.0
 40
0.0
 40
0.0
 40
0.0
 40
0.0304759848433297
 40
0.0613061664901321
 40
0.1246402725230741
 40
0.2464120034046529
 40
0.4415460174513018
 40
0.6259640341975473
 40
0.8135843179720855
 40
1.0
 40
1.0
 40
1.0
 40
1.0
 10
14.43911343812943
 20
37.90328434476402
 30
0.0
 10
14.58823475203958
 20
38.23405802626998
 30
0.0
 10
14.90165751838285
 20
38.42508793026192
 30
0.0
 10
15.63723110722451
 20
38.59088980231958
 30
0.0
 10
17.03931059922356
 20
38.22213373501216
 30
0.0
 10
18.69079687365964
 20
36.58819303814859
 30
0.0
 10
19.48132178987772
 20
34.53984412522414
 30
0.0
 10
19.46089962016298
 20
32.3062118742016
 30
0.0
 10
18.57284966106069
 20
30.27224204910518
 30
0.0
 10
18.93026794954553
 20
30.93195694858999
 30
0.0
 10
18.57284966106069
 20
30.27224204910518
 30
0.0
  0
SPLINE
  5
8A
330
1F
100
AcDbEntity
  8
0
  6
Continuous
 62
     7
100
AcDbSpline
210
0.0
220
0.0
230
1.0
 70
     8
 71
     3
 72
    12
 73
     8
 74
     0
 42
0.00000001
 43
0.00000001
 40
0.0
 40
0.0
 40
0.0
 40
0.0
 40
0.0627720024459616
 40
0.126002073650688
 40
0.2494157182649399
 40
0.6258815010234521
 40
1.0
 40
1.0
 40
1.0
 40
1.0
 10
17.39218831062317
 20
38.80232234771251
 30
0.0
 10
17.64455980221122
 20
39.0399014407347
 30
0.0
 10
17.99282965882557
 20
39.06445820545006
 30
0.0
 10
18.64624335856179
 20
38.87101295603306
 30
0.0
 10
19.99840405917507
 20
37.29218059442547
 30
0.0
 10
20.36887696072234
 20
35.25991977115437
 30
0.0
 10
20.31473954249416
 20
35.94958666245206
 30
0.0
 10
20.36887696072234
 20
35.25991977115437
 30
0.0
  0
SPLINE
  5
8B
330
1F
100
AcDbEntity
  8
0
  6
Continuous
 62
     7
100
AcDbSpline
210
0.0
220
0.0
230
1.0
 70
     8
 71
     3
 72
     9
 73
     5
 74
     0
 42
0.00000001
 43
0.00000001
 40
0.0
 40
0.0
 40
0.0
 40
0.0
 40
0.549701900676854
 40
1.0
 40
1.0
 40
1.0
 40
1.0
 10
20.36887407302856
 20
35.25991977115437
 30
0.0
 10
20.21402365860144
 20
34.91086120581673
 30
0.0
 10
19.98060408034517
 20
34.70261588912045
 30
0.0
 10
20.06640873404
 20
34.76620021803228
 30
0.0
 10
19.98060408034517
 20
34.70261588912045
 30
0.0
  0
SPLINE
  5
8C
330
1F
100
AcDbEntity
  8
0
  6
Continuous
 62
     7
100
AcDbSpline
210
0.0
220
0.0
230
1.0
 70
     8
 71
     3
 72
     9
 73
     5
 74
     0
 42
0.00000001
 43
0.00000001
 40
0.0
 40
0.0
 40
0.0
 40
0.0
 40
0.5547461094016046
 40
1.0
 40
1.0
 40
1.0
 40
1.0
 10
17.39218831062317
 20
38.80232234771251
 30
0.0
 10
19.47824421973974
 20
36.90785289547168
 30
0.0
 10
19.98060408034517
 20
34.70261588912045
 30
0.0
 10
19.90012103012193
 20
35.48850472349159
 30
0.0
 10
19.98060408034517
 20
34.70261588912045
 30
0.0
  0
SPLINE
  5
8D
330
1F
100
AcDbEntity
  8
0
  6
Continuous
 62
     7
100
AcDbSpline
210
0.0
220
0.0
230
1.0
 70
    11
 71
     3
 72
    20
 73
    16
 74
     0
 42
0.00000001
 43
0.00000001
 40
0.0
 40
0.0
 40
0.0
 40
0.0
 40
0.0394124348237618
 40
0.0712490940970416
 40
0.1255407050394904
 40
0.2508231540682233
 40
0.3739910998180182
 40
0.4382380062597834
 40
0.4994297641662431
 40
0.5622683777952234
 40
0.6255137826269316
 40
0.7490418930534907
 40
0.8745053523327371
 40
0.9451679597805419
 40
1.0
 40
1.0
 40
1.0
 40
1.0
 10
4.852544516324997
 20
29.35137764756813
 30
0.0
 10
5.446044533304066
 20
28.55737237564677
 30
0.0
 10
6.049061838421049
 20
28.0305091348538
 30
0.0
 10
7.222456516681148
 20
27.33203477751937
 30
0.0
 10
10.37148832131352
 20
27.21742454024021
 30
0.0
 10
12.87585799628254
 20
29.04097016928907
 30
0.0
 10
13.75709629989333
 20
30.39547973704392
 30
0.0
 10
13.88408956420237
 20
31.92933284720268
 30
0.0
 10
12.97317021328968
 20
33.22095171427642
 30
0.0
 10
11.60734839091173
 20
34.03644636605323
 30
0.0
 10
8.501487905927748
 20
34.12027090135872
 30
0.0
 10
5.956504885323741
 20
32.25444355161527
 30
0.0
 10
5.071780851419923
 20
30.71298161119577
 30
0.0
 10
4.852544642439454
 20
29.35137764756813
 30
0.0
 10
4.894747272232816
 20
29.81494491105497
 30
0.0
 10
4.852544642439454
 20
29.35137764756813
 30
0.0
  0
SPLINE
  5
8E
330
1F
100
AcDbEntity
  8
0
  6
Continuous
 62
     7
100
AcDbSpline
210
0.0
220
0.0
230
1.0
 70
     8
 71
     3
 72
    16
 73
    12
 74
     0
 42
0.00000001
 43
0.00000001
 40
0.0
 40
0.0
 40
0.0
 40
0.0
 40
0.1951617803963352
 40
0.2888141260734319
 40
0.3780318136049541
 40
0.4347741059125106
 40
0.4938405558330197
 40
0.6959971336853215
 40
0.7947942898034023
 40
0.880673736606603
 40
1.0
 40
1.0
 40
1.0
 40
1.0
 10
11.16790622472763
 20
33.5674775448899
 30
0.0
 10
10.18452111153185
 20
33.63781471341641
 30
0.0
 10
9.793503771223147
 20
33.37148451772926
 30
0.0
 10
9.64541982362481
 20
32.94580629648904
 30
0.0
 10
9.731143962467263
 20
32.67228021918441
 30
0.0
 10
9.953269431443179
 20
32.47304614181493
 30
0.0
 10
10.97115082746164
 20
32.39037722436704
 30
0.0
 10
11.38522581051031
 20
32.66900890139118
 30
0.0
 10
11.52301948112373
 20
33.08038109734822
 30
0.0
 10
11.1679076164135
 20
33.5674775448899
 30
0.0
 10
11.335050289688
 20
33.41838205146664
 30
0.0
 10
11.1679076164135
 20
33.5674775448899
 30
0.0
  0
SPLINE
  5
8F
330
1F
100
AcDbEntity
  8
0
  6
Continuous
 62
     7
100
AcDbSpline
210
0.0
220
0.0
230
1.0
 70
     8
 71
     3
 72
     9
 73
     5
 74
     0
 42
0.00000001
 43
0.00000001
 40
0.0
 40
0.0
 40
0.0
 40
0.0
 40
0.5582949518747866
 40
1.0
 40
1.0
 40
1.0
 40
1.0
 10
11.60436123609543
 20
23.71152258207051
 30
0.0
 10
16.54390670692944
 20
23.12376407933742
 30
0.0
 10
20.47789912450074
 20
23.23549678196534
 30
0.0
 10
19.16465554660612
 20
23.15579377025218
 30
0.0
 10
20.47789912450074
 20
23.23549678196535
 30
0.0
  0
SPLINE
  5
90
330
1F
100
AcDbEntity
  8
0
  6
Continuous
 62
     7
100
AcDbSpline
210
0.0
220
0.0
230
1.0
 70
     8
 71
     3
 72
     9
 73
     5
 74
     0
 42
0.00000001
 43
0.00000001
 40
0.0
 40
0.0
 40
0.0
 40
0.0
 40
0.5591969710675267
 40
1.0
 40
1.0
 40
1.0
 40
1.0
 10
20.47789096832275
 20
23.23549678196534
 30
0.0
 10
22.08844359615701
 20
23.59686019262188
 30
0.0
 10
23.2453143528439
 20
24.19233127653264
 30
0.0
 10
22.86797003861719
 20
23.97102083443045
 30
0.0
 10
23.24531435284391
 20
24.19233127653264
 30
0.0
  0
SPLINE
  5
91
330
1F
100
AcDbEntity
  8
0
  6
Continuous
 62
     7
100
AcDbSpline
210
0.0
220
0.0
230
1.0
 70
     8
 71
     3
 72
     9
 73
     5
 74
     0
 42
0.00000001
 43
0.00000001
 40
0.0
 40
0.0
 40
0.0
 40
0.0
 40
0.5579544652322488
 40
0.9999999999999999
 40
0.9999999999999999
 40
0.9999999999999999
 40
0.9999999999999999
 10
22.79876172542572
 20
24.53096810919841
 30
0.0
 10
24.50471027076333
 20
23.38743485598162
 30
0.0
 10
25.97130434167591
 20
22.68273603248306
 30
0.0
 10
25.47396433771667
 20
22.90280663948257
 30
0.0
 10
25.97130434167591
 20
22.68273603248306
 30
0.0
  0
LINE
  5
92
330
1F
100
AcDbEntity
  8
0
  6
Continuous
 62
     7
100
AcDbLine
 10
0.0
 20
11.408838546
 30
0.0
 11
0.0
 21
11.4137865455
 31
0.0
  0
SPLINE
  5
93
330
1F
100
AcDbEntity
  8
0
  6
Continuous
 62
     7
100
AcDbSpline
210
0.0
220
0.0
230
1.0
 70
     8
 71
     3
 72
    10
 73
     6
 74
     0
 42
0.00000001
 43
0.00000001
 40
0.0
 40
0.0
 40
0.0
 40
0.0
 40
0.2578463925901048
 40
0.5083307124863666
 40
1.0
 40
1.0
 40
1.0
 40
1.0
 10
18.57283711433411
 20
22.77523854197457
 30
0.0
 10
16.80029564154459
 20
21.83373614451133
 30
0.0
 10
15.66663451234085
 20
20.24742236880402
 30
0.0
 10
15.17599143463135
 20
16.45186140603609
 30
0.0
 10
15.17248077185553
 20
17.758175107534
 30
0.0
 10
15.17599143463135
 20
16.45186140603609
 30
0.0
  0
SPLINE
  5
94
330
1F
100
AcDbEntity
  8
0
  6
Continuous
 62
     7
100
AcDbSpline
210
0.0
220
0.0
230
1.0
 70
     8
 71
     3
 72
    11
 73
     7
 74
     0
 42
0.00000001
 43
0.00000001
 40
0.0
 40
0.0
 40
0.0
 40
0.0
 40
0.2795488225458849
 40
0.5608740765656132
 40
0.7801993191842431
 40
1.0
 40
1.0
 40
1.0
 40
1.0
 10
15.17599076032639
 20
16.45186140603609
 30
0.0
 10
12.88279966507601
 20
13.76739802025926
 30
0.0
 10
11.06053612702927
 20
10.71725867614237
 30
0.0
 10
10.53532305935676
 20
7.997516193240685
 30
0.0
 10
10.67913364877053
 20
5.22524855557688
 30
0.0
 10
10.58855093632923
 20
6.147742798734615
 30
0.0
 10
10.67913364877053
 20
5.22524855557688
 30
0.0
  0
SPLINE
  5
95
330
1F
100
AcDbEntity
  8
0
  6
Continuous
 62
     7
100
AcDbSpline
210
0.0
220
0.0
230
1.0
 70
     8
 71
     3
 72
     9
 73
     5
 74
     0
 42
0.00000001
 43
0.00000001
 40
0.0
 40
0.0
 40
0.0
 40
0.0
 40
0.5481647132921947
 40
1.0
 40
1.0
 40
1.0
 40
1.0
 10
11.28199696540833
 20
23.82288526661694
 30
0.0
 10
10.44928841959046
 20
22.55024703901956
 30
0.0
 10
10.24718102434234
 20
21.31304929946491
 30
0.0
 10
10.27808188193547
 20
21.73962120714788
 30
0.0
 10
10.24718102434234
 20
21.31304929946491
 30
0.0
  0
SPLINE
  5
96
330
1F
100
AcDbEntity
  8
0
  6
Continuous
 62
     7
100
AcDbSpline
210
0.0
220
0.0
230
1.0
 70
     8
 71
     3
 72
     9
 73
     5
 74
     0
 42
0.00000001
 43
0.00000001
 40
0.0
 40
0.0
 40
0.0
 40
0.0
 40
0.5407688144264738
 40
1.0
 40
1.0
 40
1.0
 40
1.0
 10
10.24717837572098
 20
21.31304929946491
 30
0.0
 10
10.52286230204493
 20
21.93482977930759
 30
0.0
 10
11.0345925026437
 20
22.20270273473138
 30
0.0
 10
10.84276758950964
 20
22.13332362197286
 30
0.0
 10
11.0345925026437
 20
22.20270273473138
 30
0.0
  0
SPLINE
  5
97
330
1F
100
AcDbEntity
  8
0
  6
Continuous
 62
     7
100
AcDbSpline
210
0.0
220
0.0
230
1.0
 70
     8
 71
     3
 72
     9
 73
     5
 74
     0
 42
0.00000001
 43
0.00000001
 40
0.0
 40
0.0
 40
0.0
 40
0.0
 40
0.5468498432435964
 40
1.0
 40
1.0
 40
1.0
 40
1.0
 10
11.03458553552628
 20
22.20270273473138
 30
0.0
 10
10.71423163909355
 20
20.90506070321532
 30
0.0
 10
10.945113925564
 20
19.82181079668918
 30
0.0
 10
10.83066667013097
 20
20.18349464647541
 30
0.0
 10
10.945113925564
 20
19.82181079668918
 30
0.0
  0
SPLINE
  5
98
330
1F
100
AcDbEntity
  8
0
  6
Continuous
 62
     7
100
AcDbSpline
210
0.0
220
0.0
230
1.0
 70
     8
 71
     3
 72
    21
 73
    17
 74
     0
 42
0.00000001
 43
0.00000001
 40
0.0
 40
0.0
 40
0.0
 40
0.0
 40
0.0477567755207823
 40
0.1091602440682306
 40
0.2477938228250682
 40
0.3099783802834484
 40
0.3565052769119392
 40
0.9054030282094419
 40
0.9545454694857785
 40
0.9577757575214254
 40
0.9579265680159198
 40
0.9579697872602551
 40
0.9580087738095319
 40
0.9600484473874646
 40
0.9656862328825354
 40
1.0
 40
1.0
 40
1.0
 40
1.0
 10
10.94511151313782
 20
19.82181079668918
 30
0.0
 10
10.92026959877758
 20
19.91637829849437
 30
0.0
 10
10.95460122153067
 20
20.03731548502343
 30
0.0
 10
11.12640291521737
 20
20.26324973430132
 30
0.0
 10
11.23852440247405
 20
20.32356455310817
 30
0.0
 10
11.32940362010187
 20
20.29501568863203
 30
0.0
 10
11.42199499622144
 20
19.1750381122445
 30
0.0
 10
11.41110792096008
 20
19.0750159706205
 30
0.0
 10
11.4096302317487
 20
19.06856956080427
 30
0.0
 10
11.4094524584728
 20
19.0683171074522
 30
0.0
 10
11.40937143374074
 20
19.0682815441309
 30
0.0
 10
11.40929574303219
 20
19.06830688481803
 30
0.0
 10
11.40883854603326
 20
19.07245775440222
 30
0.0
 10
11.40908058307138
 20
19.08399786634365
 30
0.0
 10
11.41378654551954
 20
19.15409315329519
 30
0.0
 10
11.41059836452813
 20
19.12974945483316
 30
0.0
 10
11.41378654551954
 20
19.15409315329519
 30
0.0
  0
SPLINE
  5
99
330
1F
100
AcDbEntity
  8
0
  6
Continuous
 62
     7
100
AcDbSpline
210
0.0
220
0.0
230
1.0
 70
     8
 71
     3
 72
    12
 73
     8
 74
     0
 42
0.00000001
 43
0.00000001
 40
0.0
 40
0.0
 40
0.0
 40
0.0
 40
0.1208771803231265
 40
0.2452869299270214
 40
0.4935861794869298
 40
0.7358598898476978
 40
1.0
 40
1.0
 40
1.0
 40
1.0
 10
11.41378283500671
 20
19.15409315329519
 30
0.0
 10
11.59582074069036
 20
18.56944070671791
 30
0.0
 10
11.99313237793756
 20
18.08022115787271
 30
0.0
 10
12.88228488090469
 20
17.19053572849241
 30
0.0
 10
13.73609269642933
 20
16.30889619026693
 30
0.0
 10
13.97247071479556
 20
14.9918657165773
 30
0.0
 10
13.95794826233204
 20
15.46330111787109
 30
0.0
 10
13.97247071479556
 20
14.9918657165773
 30
0.0
  0
SPLINE
  5
9A
330
1F
100
AcDbEntity
  8
0
  6
Continuous
 62
     7
100
AcDbSpline
210
0.0
220
0.0
230
1.0
 70
     8
 71
     3
 72
     9
 73
     5
 74
     0
 42
0.00000001
 43
0.00000001
 40
0.0
 40
0.0
 40
0.0
 40
0.0
 40
0.5600458577135949
 40
1.0
 40
1.0
 40
1.0
 40
1.0
 10
11.48774474859238
 20
18.71557682850224
 30
0.0
 10
9.93336165498741
 20
16.53763737350316
 30
0.0
 10
9.37304149199653
 20
14.51172806258109
 30
0.0
 10
9.51136466867424
 20
15.21012799768973
 30
0.0
 10
9.37304149199653
 20
14.51172806258109
 30
0.0
  0
SPLINE
  5
9B
330
1F
100
AcDbEntity
  8
0
  6
Continuous
 62
     7
100
AcDbSpline
210
0.0
220
0.0
230
1.0
 70
     8
 71
     3
 72
    10
 73
     6
 74
     0
 42
0.00000001
 43
0.00000001
 40
0.0
 40
0.0
 40
0.0
 40
0.0
 40
0.2450915606254248
 40
0.4945514615787544
 40
1.0
 40
1.0
 40
1.0
 40
1.0
 10
9.37303900718689
 20
14.51172806258109
 30
0.0
 10
8.600497984966788
 20
12.64521191366813
 30
0.0
 10
8.640106804251001
 20
10.58951427581264
 30
0.0
 10
9.422929772604371
 20
6.497755954507048
 30
0.0
 10
9.12932510586061
 20
7.843846390932789
 30
0.0
 10
9.422929772604371
 20
6.497755954507048
 30
0.0
  0
SPLINE
  5
9C
330
1F
100
AcDbEntity
  8
0
  6
Continuous
 62
     7
100
AcDbSpline
210
0.0
220
0.0
230
1.0
 70
     8
 71
     3
 72
     9
 73
     5
 74
     0
 42
0.00000001
 43
0.00000001
 40
0.0
 40
0.0
 40
0.0
 40
0.0
 40
0.5555590499166616
 40
1.0
 40
1.0
 40
1.0
 40
1.0
 10
23.70151877403259
 20
17.21754533581373
 30
0.0
 10
23.11677414989074
 20
16.58395229765978
 30
0.0
 10
22.48389816518028
 20
16.30970965535004
 30
0.0
 10
22.7070853902846
 20
16.3838925519776
 30
0.0
 10
22.48389816518029
 20
16.30970965535005
 30
0.0
  0
SPLINE
  5
9D
330
1F
100
AcDbEntity
  8
0
  6
Continuous
 62
     7
100
AcDbSpline
210
0.0
220
0.0
230
1.0
 70
     8
 71
     3
 72
    11
 73
     7
 74
     0
 42
0.00000001
 43
0.00000001
 40
0.0
 40
0.0
 40
0.0
 40
0.0
 40
0.1228041605232938
 40
0.2488845035556534
 40
0.4971305916988595
 40
1.0
 40
1.0
 40
1.0
 40
1.0
 10
22.48388528823853
 20
16.30970965535004
 30
0.0
 10
22.36592753829986
 20
15.77470791472272
 30
0.0
 10
22.06508119153373
 20
15.29946022437636
 30
0.0
 10
21.95163335800972
 20
14.19781640948941
 30
0.0
 10
22.20361876398032
 20
11.96862357562011
 30
0.0
 10
22.10981314589157
 20
12.6945614214384
 30
0.0
 10
22.20361876398032
 20
11.96862357562011
 30
0.0
  0
SPLINE
  5
9E
330
1F
100
AcDbEntity
  8
0
  6
Continuous
 62
     7
100
AcDbSpline
210
0.0
220
0.0
230
1.0
 70
     8
 71
     3
 72
    10
 73
     6
 74
     0
 42
0.00000001
 43
0.00000001
 40
0.0
 40
0.0
 40
0.0
 40
0.0
 40
0.2546556158253476
 40
0.4986479780999004
 40
1.0
 40
1.0
 40
1.0
 40
1.0
 10
27.36286818981171
 20
9.400131930380988
 30
0.0
 10
26.78059188324507
 20
9.297812133418132
 30
0.0
 10
26.2818093009869
 20
9.566276570164106
 30
0.0
 10
25.39094869799128
 20
10.31532455199136
 30
0.0
 10
25.67571996891889
 20
10.06410413963349
 30
0.0
 10
25.39094869799128
 20
10.31532455199136
 30
0.0
  0
SPLINE
  5
9F
330
1F
100
AcDbEntity
  8
0
  6
Continuous
 62
     7
100
AcDbSpline
210
0.0
220
0.0
230
1.0
 70
     8
 71
     3
 72
    10
 73
     6
 74
     0
 42
0.00000001
 43
0.00000001
 40
0.0
 40
0.0
 40
0.0
 40
0.0
 40
0.4896078465206082
 40
0.7324747572916283
 40
1.0
 40
1.0
 40
1.0
 40
1.0
 10
25.39093792438507
 20
10.31532455199136
 30
0.0
 10
22.40469097291788
 20
11.92840985765307
 30
0.0
 10
20.7211197126515
 20
11.9394541028937
 30
0.0
 10
19.14370800955256
 20
10.9642065777013
 30
0.0
 10
19.64095197280171
 20
11.36598502054194
 30
0.0
 10
19.14370800955256
 20
10.9642065777013
 30
0.0
  0
SPLINE
  5
A0
330
1F
100
AcDbEntity
  8
0
  6
Continuous
 62
     7
100
AcDbSpline
210
0.0
220
0.0
230
1.0
 70
     8
 71
     3
 72
    10
 73
     6
 74
     0
 42
0.00000001
 43
0.00000001
 40
0.0
 40
0.0
 40
0.0
 40
0.0
 40
0.4929826528396518
 40
0.7359603004772564
 40
1.0
 40
1.0
 40
1.0
 40
1.0
 10
22.17088639736176
 20
1.679599528607367
 30
0.0
 10
19.29729656263553
 20
0.3313653812914249
 30
0.0
 10
17.74946588708392
 20
0.5588191934055924
 30
0.0
 10
16.4406219529676
 20
1.643784363288596
 30
0.0
 10
16.84104915916142
 20
1.220877604607564
 30
0.0
 10
16.4406219529676
 20
1.643784363288596
 30
0.0
  0
SPLINE
  5
A1
330
1F
100
AcDbEntity
  8
0
  6
Continuous
 62
     7
100
AcDbSpline
210
0.0
220
0.0
230
1.0
 70
     8
 71
     3
 72
     9
 73
     5
 74
     0
 42
0.00000001
 43
0.00000001
 40
0.0
 40
0.0
 40
0.0
 40
0.0
 40
0.5995252805196681
 40
1.0
 40
1.0
 40
1.0
 40
1.0
 10
16.44061505794525
 20
1.643784363288596
 30
0.0
 10
15.72923178945351
 20
2.521090340991963
 30
0.0
 10
14.97498479027263
 20
2.539810657610589
 30
0.0
 10
15.24502604646806
 20
2.571435979047896
 30
0.0
 10
14.97498479027263
 20
2.539810657610589
 30
0.0
  0
SPLINE
  5
A2
330
1F
100
AcDbEntity
  8
0
  6
Continuous
 62
     7
100
AcDbSpline
210
0.0
220
0.0
230
1.0
 70
     8
 71
     3
 72
     9
 73
     5
 74
     0
 42
0.00000001
 43
0.00000001
 40
0.0
 40
0.0
 40
0.0
 40
0.0
 40
0.5251422370079655
 40
1.0
 40
1.0
 40
1.0
 40
1.0
 10
21.87812328338623
 20
4.141090954255962
 30
0.0
 10
22.28666444243503
 20
2.57110748691259
 30
0.0
 10
21.65343253164428
 20
1.247891919744089
 30
0.0
 10
21.94386281079676
 20
1.681331569420917
 30
0.0
 10
21.65343253164428
 20
1.247891919744089
 30
0.0
  0
SPLINE
  5
A3
330
1F
100
AcDbEntity
  8
0
  6
Continuous
 62
     7
100
AcDbSpline
210
0.0
220
0.0
230
1.0
 70
     8
 71
     3
 72
    11
 73
     7
 74
     0
 42
0.00000001
 43
0.00000001
 40
0.0
 40
0.0
 40
0.0
 40
0.0
 40
0.2305702494028099
 40
0.491981349766462
 40
0.7671602787103455
 40
1.0
 40
1.0
 40
1.0
 40
1.0
 10
20.72308957576752
 20
9.188400096294478
 30
0.0
 10
21.82634627339961
 20
8.764654917600998
 30
0.0
 10
22.3738485244635
 20
7.541700234277953
 30
0.0
 10
22.32856004607914
 20
6.131940894276636
 30
0.0
 10
21.65343253164429
 20
5.147781745548351
 30
0.0
 10
21.92288742085501
 20
5.460246497973611
 30
0.0
 10
21.65343253164429
 20
5.147781745548351
 30
0.0
  0
LINE
  5
A4
330
1F
100
AcDbEntity
  8
0
  6
Continuous
 62
     7
100
AcDbLine
 10
0.0
 20
11.408838546
 30
0.0
 11
0.0
 21
11.4137865455
 31
0.0
  0
SPLINE
  5
A5
330
1F
100
AcDbEntity
  8
0
  6
Continuous
 62
     7
100
AcDbSpline
210
0.0
220
0.0
230
1.0
 70
     8
 71
     3
 72
    11
 73
     7
 74
     0
 42
0.00000001
 43
0.00000001
 40
0.0
 40
0.0
 40
0.0
 40
0.0
 40
0.233205630610863
 40
0.4753211029719244
 40
0.7155032072071054
 40
1.0
 40
1.0
 40
1.0
 40
1.0
 10
19.98059451580048
 20
9.903927867650747
 30
0.0
 10
19.47135701962156
 20
10.76402723613069
 30
0.0
 10
18.49998882687876
 20
11.12918282044701
 30
0.0
 10
17.5098105528477
 20
10.84755942915494
 30
0.0
 10
16.94413324839232
 20
9.767321870809685
 30
0.0
 10
17.07684737043818
 20
10.18377301530075
 30
0.0
 10
16.94413324839232
 20
9.767321870809685
 30
0.0
  0
SPLINE
  5
A6
330
1F
100
AcDbEntity
  8
0
  6
Continuous
 62
     7
100
AcDbSpline
210
0.0
220
0.0
230
1.0
 70
     8
 71
     3
 72
     9
 73
     5
 74
     0
 42
0.00000001
 43
0.00000001
 40
0.0
 40
0.0
 40
0.0
 40
0.0
 40
0.5446373146705408
 40
1.0
 40
1.0
 40
1.0
 40
1.0
 10
16.94412529468536
 20
9.767321870809685
 30
0.0
 10
16.08354177929125
 20
9.505736516261669
 30
0.0
 10
15.60088938322255
 20
8.929031135853789
 30
0.0
 10
15.74379671214897
 20
9.148436083155179
 30
0.0
 10
15.60088938322255
 20
8.929031135853789
 30
0.0
  0
SPLINE
  5
A7
330
1F
100
AcDbEntity
  8
0
  6
Continuous
 62
     7
100
AcDbSpline
210
0.0
220
0.0
230
1.0
 70
     8
 71
     3
 72
     9
 73
     5
 74
     0
 42
0.00000001
 43
0.00000001
 40
0.0
 40
0.0
 40
0.0
 40
0.0
 40
0.5670401616578559
 40
1.0
 40
1.0
 40
1.0
 40
1.0
 10
9.086132049560547
 20
14.2410729205308
 30
0.0
 10
7.424359484658516
 20
14.5431040158596
 30
0.0
 10
6.191590492129699
 20
14.16441242430239
 30
0.0
 10
6.599910919466666
 20
14.33461042153949
 30
0.0
 10
6.191590492129699
 20
14.16441242430239
 30
0.0
  0
SPLINE
  5
A8
330
1F
100
AcDbEntity
  8
0
  6
Continuous
 62
     7
100
AcDbSpline
210
0.0
220
0.0
230
1.0
 70
     8
 71
     3
 72
     9
 73
     5
 74
     0
 42
0.00000001
 43
0.00000001
 40
0.0
 40
0.0
 40
0.0
 40
0.0
 40
0.5537751109203024
 40
1.0
 40
1.0
 40
1.0
 40
1.0
 10
14.97498154640198
 20
2.539810657610589
 30
0.0
 10
14.23599455951677
 20
2.044533218754833
 30
0.0
 10
13.5196853017684
 20
2.071964950718536
 30
0.0
 10
13.76744224762677
 20
2.031100404101779
 30
0.0
 10
13.51968530176841
 20
2.071964950718536
 30
0.0
  0
SPLINE
  5
A9
330
1F
100
AcDbEntity
  8
0
  6
Continuous
 62
     7
100
AcDbSpline
210
0.0
220
0.0
230
1.0
 70
     8
 71
     3
 72
    10
 73
     6
 74
     0
 42
0.00000001
 43
0.00000001
 40
0.0
 40
0.0
 40
0.0
 40
0.0
 40
0.4823045467264074
 40
0.714951736615329
 40
1.0
 40
1.0
 40
1.0
 40
1.0
 10
14.09941166639328
 20
4.141090954255962
 30
0.0
 10
12.91202733538311
 20
4.403830384475642
 30
0.0
 10
12.41809236276825
 20
4.087386107461475
 30
0.0
 10
12.23808016244992
 20
3.391559432061645
 30
0.0
 10
12.25908261615339
 20
3.644433894314727
 30
0.0
 10
12.23808016244992
 20
3.391559432061645
 30
0.0
  0
SPLINE
  5
AA
330
1F
100
AcDbEntity
  8
0
  6
Continuous
 62
     7
100
AcDbSpline
210
0.0
220
0.0
230
1.0
 70
     8
 71
     3
 72
    11
 73
     7
 74
     0
 42
0.00000001
 43
0.00000001
 40
0.0
 40
0.0
 40
0.0
 40
0.0
 40
0.3601009717617737
 40
0.7630488208221939
 40
0.8886379893635097
 40
1.0
 40
1.0
 40
1.0
 40
1.0
 10
11.48774474859238
 20
4.65415640404294
 30
0.0
 10
10.68358420505572
 20
5.224522334685228
 30
0.0
 10
9.646679105865985
 20
4.847843967425949
 30
0.0
 10
9.476744215909658
 20
4.548929998948432
 30
0.0
 10
9.582865388283796
 20
4.263103899843523
 30
0.0
 10
9.528210732511472
 20
4.359133795850594
 30
0.0
 10
9.582865388283796
 20
4.263103899843523
 30
0.0
  0
SPLINE
  5
AB
330
1F
100
AcDbEntity
  8
0
  6
Continuous
 62
     7
100
AcDbSpline
210
0.0
220
0.0
230
1.0
 70
     8
 71
     3
 72
     9
 73
     5
 74
     0
 42
0.00000001
 43
0.00000001
 40
0.0
 40
0.0
 40
0.0
 40
0.0
 40
0.547693881453233
 40
1.0
 40
1.0
 40
1.0
 40
1.0
 10
6.191588938236237
 20
14.16441242430239
 30
0.0
 10
7.302786904699538
 20
12.92746865049911
 30
0.0
 10
7.167531228188116
 20
11.56097168339461
 30
0.0
 10
7.291990491390622
 20
12.04247695312847
 30
0.0
 10
7.167531228188116
 20
11.56097168339461
 30
0.0
  0
SPLINE
  5
AC
330
1F
100
AcDbEntity
  8
0
  6
Continuous
 62
     7
100
AcDbSpline
210
0.0
220
0.0
230
1.0
 70
     8
 71
     3
 72
    11
 73
     7
 74
     0
 42
0.00000001
 43
0.00000001
 40
0.0
 40
0.0
 40
0.0
 40
0.0
 40
0.2460524911078671
 40
0.4878004678734868
 40
0.7435703849067565
 40
0.9999999999999999
 40
0.9999999999999999
 40
0.9999999999999999
 40
0.9999999999999999
 10
7.167529314756393
 20
11.56097168339461
 30
0.0
 10
7.171151579335945
 20
12.74872251947293
 30
0.0
 10
6.447646130436871
 20
13.66435133170717
 30
0.0
 10
5.248375280416393
 20
13.9578586644623
 30
0.0
 10
4.141164967536434
 20
13.40436409839964
 30
0.0
 10
4.495741224302042
 20
13.64982053248111
 30
0.0
 10
4.141164967536434
 20
13.40436409839964
 30
0.0
  0
SPLINE
  5
AD
330
1F
100
AcDbEntity
  8
0
  6
Continuous
 62
     7
100
AcDbSpline
210
0.0
220
0.0
230
1.0
 70
     8
 71
     3
 72
    10
 73
     6
 74
     0
 42
0.00000001
 43
0.00000001
 40
0.0
 40
0.0
 40
0.0
 40
0.0
 40
0.4993695729534208
 40
0.7453887715381989
 40
1.0
 40
1.0
 40
1.0
 40
1.0
 10
4.14116308093071
 20
13.40436409839964
 30
0.0
 10
3.262512165796865
 20
13.70676090357076
 30
0.0
 10
2.836243460786357
 20
13.5398145647518
 30
0.0
 10
2.61265187470353
 20
13.12211003180923
 30
0.0
 10
2.668061198573763
 20
13.27821633717716
 30
0.0
 10
2.61265187470353
 20
13.12211003180923
 30
0.0
  0
SPLINE
  5
AE
330
1F
100
AcDbEntity
  8
0
  6
Continuous
 62
     7
100
AcDbSpline
210
0.0
220
0.0
230
1.0
 70
     8
 71
     3
 72
    10
 73
     6
 74
     0
 42
0.00000001
 43
0.00000001
 40
0.0
 40
0.0
 40
0.0
 40
0.0
 40
0.4912274813936896
 40
0.7349694420192823
 40
1.0
 40
1.0
 40
1.0
 40
1.0
 10
2.612650394439697
 20
13.12211003180923
 30
0.0
 10
3.123013592130187
 20
12.65731793878606
 30
0.0
 10
3.20520834609845
 20
12.32481103550236
 30
0.0
 10
3.096418083462913
 20
11.96862357562011
 30
0.0
 10
3.14780958868705
 20
12.0852072503433
 30
0.0
 10
3.096418083462913
 20
11.96862357562011
 30
0.0
  0
SPLINE
  5
AF
330
1F
100
AcDbEntity
  8
0
  6
Continuous
 62
     7
100
AcDbSpline
210
0.0
220
0.0
230
1.0
 70
     8
 71
     3
 72
     9
 73
     5
 74
     0
 42
0.00000001
 43
0.00000001
 40
0.0
 40
0.0
 40
0.0
 40
0.0
 40
0.5553525739904724
 40
1.0
 40
1.0
 40
1.0
 40
1.0
 10
3.096416592597961
 20
11.96862357562011
 30
0.0
 10
2.675266556101925
 20
10.85611839945249
 30
0.0
 10
2.696380641604192
 20
9.903927867650747
 30
0.0
 10
2.6627889217439
 20
10.22587897379023
 30
0.0
 10
2.696380641604192
 20
9.903927867650747
 30
0.0
  0
SPLINE
  5
B0
330
1F
100
AcDbEntity
  8
0
  6
Continuous
 62
     7
100
AcDbSpline
210
0.0
220
0.0
230
1.0
 70
     8
 71
     3
 72
    11
 73
     7
 74
     0
 42
0.00000001
 43
0.00000001
 40
0.0
 40
0.0
 40
0.0
 40
0.0
 40
0.2550900098699689
 40
0.5015634843981279
 40
0.7495103138454876
 40
1.0
 40
1.0
 40
1.0
 40
1.0
 10
2.696380019187927
 20
9.903927867650747
 30
0.0
 10
3.235670188559069
 20
9.77939603019445
 30
0.0
 10
3.533424287473896
 20
9.335167940500119
 30
0.0
 10
3.354903900877297
 20
8.827668174739935
 30
0.0
 10
3.096418083462913
 20
8.349570318471466
 30
0.0
 10
3.179352844772557
 20
8.506302139641871
 30
0.0
 10
3.096418083462913
 20
8.349570318471466
 30
0.0
  0
SPLINE
  5
B1
330
1F
100
AcDbEntity
  8
0
  6
Continuous
 62
     7
100
AcDbSpline
210
0.0
220
0.0
230
1.0
 70
     8
 71
     3
 72
    10
 73
     6
 74
     0
 42
0.00000001
 43
0.00000001
 40
0.0
 40
0.0
 40
0.0
 40
0.0
 40
0.2515620567206541
 40
0.4972329747360872
 40
1.0
 40
1.0
 40
1.0
 40
1.0
 10
12.23807781934738
 20
3.391559432061645
 30
0.0
 10
12.7823868680077
 20
3.425111486154775
 30
0.0
 10
13.21849828744722
 20
3.119433660594998
 30
0.0
 10
13.5196853017684
 20
2.071964950718536
 30
0.0
 10
13.48265960713442
 20
2.450386157677154
 30
0.0
 10
13.5196853017684
 20
2.071964950718536
 30
0.0
  0
SPLINE
  5
B2
330
1F
100
AcDbEntity
  8
0
  6
Continuous
 62
     7
100
AcDbSpline
210
0.0
220
0.0
230
1.0
 70
     8
 71
     3
 72
    11
 73
     7
 74
     0
 42
0.00000001
 43
0.00000001
 40
0.0
 40
0.0
 40
0.0
 40
0.0
 40
0.1223567251293295
 40
0.2520544459850317
 40
0.6270196608730113
 40
1.0
 40
1.0
 40
1.0
 40
1.0
 10
14.09941166639328
 20
4.141090954255962
 30
0.0
 10
13.88799968105231
 20
4.459898975548446
 30
0.0
 10
13.51821334707479
 20
4.626264374663559
 30
0.0
 10
12.39280493192844
 20
4.298056768210117
 30
0.0
 10
11.95497957320187
 20
3.217287375595308
 30
0.0
 10
12.04006167403138
 20
3.622960725756776
 30
0.0
 10
11.95497957320187
 20
3.217287375595308
 30
0.0
  0
SPLINE
  5
B3
330
1F
100
AcDbEntity
  8
0
  6
Continuous
 62
     7
100
AcDbSpline
210
0.0
220
0.0
230
1.0
 70
     8
 71
     3
 72
     9
 73
     5
 74
     0
 42
0.00000001
 43
0.00000001
 40
0.0
 40
0.0
 40
0.0
 40
0.0
 40
0.5542259778554718
 40
1.0
 40
1.0
 40
1.0
 40
1.0
 10
11.95497810840607
 20
3.217287375595308
 30
0.0
 10
11.06790144359232
 20
2.946268562265035
 30
0.0
 10
10.39034674766986
 20
2.634006002038741
 30
0.0
 10
10.61352833607174
 20
2.745097910280975
 30
0.0
 10
10.39034674766986
 20
2.634006002038741
 30
0.0
  0
LINE
  5
B4
330
1F
100
AcDbEntity
  8
0
  6
Continuous
 62
     7
100
AcDbLine
 10
0.0
 20
11.408838546
 30
0.0
 11
0.0
 21
11.4137865455
 31
0.0
  0
LINE
  5
B5
330
1F
100
AcDbEntity
  8
0
  6
Continuous
 62
     7
100
AcDbLine
 10
0.0
 20
11.408838546
 30
0.0
 11
0.0
 21
11.4137865455
 31
0.0
  0
SPLINE
  5
B6
330
1F
100
AcDbEntity
  8
0
  6
Continuous
 62
     7
100
AcDbSpline
210
0.0
220
0.0
230
1.0
 70
     8
 71
     3
 72
    11
 73
     7
 74
     0
 42
0.00000001
 43
0.00000001
 40
0.0
 40
0.0
 40
0.0
 40
0.0
 40
0.3491839757694568
 40
0.5112403814535056
 40
0.6527166113000202
 40
1.0
 40
1.0
 40
1.0
 40
1.0
 10
9.706400334835052
 20
2.891454621932462
 30
0.0
 10
9.997715883901979
 20
3.433343683996624
 30
0.0
 10
10.13174752504264
 20
3.685459012489827
 30
0.0
 10
10.0976719301885
 20
3.932387185299012
 30
0.0
 10
9.582865388283796
 20
4.263103899843523
 30
0.0
 10
9.796324978886267
 20
4.18863279853008
 30
0.0
 10
9.582865388283796
 20
4.263103899843523
 30
0.0
  0
SPLINE
  5
B7
330
1F
100
AcDbEntity
  8
0
  6
Continuous
 62
     7
100
AcDbSpline
210
0.0
220
0.0
230
1.0
 70
     8
 71
     3
 72
     9
 73
     5
 74
     0
 42
0.00000001
 43
0.00000001
 40
0.0
 40
0.0
 40
0.0
 40
0.0
 40
0.5341084518343172
 40
1.0
 40
1.0
 40
1.0
 40
1.0
 10
7.514022290706635
 20
10.83237135836988
 30
0.0
 10
8.273597250380035
 20
10.54752464145039
 30
0.0
 10
8.71860958875561
 20
9.997354982813496
 30
0.0
 10
8.587164507778473
 20
10.20417174950558
 30
0.0
 10
8.71860958875561
 20
9.997354982813496
 30
0.0
  0
SPLINE
  5
B8
330
1F
100
AcDbEntity
  8
0
  6
Continuous
 62
     7
100
AcDbSpline
210
0.0
220
0.0
230
1.0
 70
     8
 71
     3
 72
     9
 73
     5
 74
     0
 42
0.00000001
 43
0.00000001
 40
0.0
 40
0.0
 40
0.0
 40
0.0
 40
0.5596395478128702
 40
1.0
 40
1.0
 40
1.0
 40
1.0
 10
3.096416592597961
 20
8.349570318471466
 30
0.0
 10
3.957860535253655
 20
8.155218920311615
 30
0.0
 10
4.308897199250787
 20
7.555529991652529
 30
0.0
 10
4.215870158956016
 20
7.788215593838642
 30
0.0
 10
4.308897199250787
 20
7.555529991652529
 30
0.0
  0
LINE
  5
B9
330
1F
100
AcDbEntity
  8
0
  6
Continuous
 62
     7
100
AcDbLine
 10
0.0
 20
11.408838546
 30
0.0
 11
0.0
 21
11.4137865455
 31
0.0
  0
SPLINE
  5
BA
330
1F
100
AcDbEntity
  8
0
  6
Continuous
 62
     7
100
AcDbSpline
210
0.0
220
0.0
230
1.0
 70
     8
 71
     3
 72
    10
 73
     6
 74
     0
 42
0.00000001
 43
0.00000001
 40
0.0
 40
0.0
 40
0.0
 40
0.0
 40
0.5028523215472125
 40
0.7422738435267425
 40
1.0
 40
1.0
 40
1.0
 40
1.0
 10
9.406350553035736
 20
6.581008666709788
 30
0.0
 10
8.305439866193511
 20
6.573789942301303
 30
0.0
 10
7.797974848584211
 20
6.4424559550717
 30
0.0
 10
7.461958723779941
 20
5.989153848556938
 30
0.0
 10
7.555325261636876
 20
6.166298530605691
 30
0.0
 10
7.461958723779941
 20
5.989153848556938
 30
0.0
  0
LINE
  5
BB
330
1F
100
AcDbEntity
  8
0
  6
Continuous
 62
     7
100
AcDbLine
 10
0.0
 20
11.408838546
 30
0.0
 11
0.0
 21
11.4137865455
 31
0.0
  0
SPLINE
  5
BC
330
1F
100
AcDbEntity
  8
0
  6
Continuous
 62
     7
100
AcDbSpline
210
0.0
220
0.0
230
1.0
 70
     8
 71
     3
 72
    13
 73
     9
 74
     0
 42
0.00000001
 43
0.00000001
 40
0.0
 40
0.0
 40
0.0
 40
0.0
 40
0.2425379705878933
 40
0.5058465755887585
 40
0.6430996629455782
 40
0.7251498933405878
 40
0.8207614410164561
 40
1.0
 40
1.0
 40
1.0
 40
1.0
 10
7.680326700210571
 20
5.147781747129796
 30
0.0
 10
8.258146367593124
 20
5.668330563305648
 30
0.0
 10
9.102391658153419
 20
5.656972174480717
 30
0.0
 10
9.467051525361946
 20
5.41055105767181
 30
0.0
 10
9.52193841058244
 20
5.153238736711726
 30
0.0
 10
9.387225539313063
 20
4.877833910739586
 30
0.0
 10
9.301152741602031
 20
4.309571667329802
 30
0.0
 10
9.30093003624023
 20
4.507694271295855
 30
0.0
 10
9.301152741602031
 20
4.309571667329802
 30
0.0
  0
SPLINE
  5
BD
330
1F
100
AcDbEntity
  8
0
  6
Continuous
 62
     7
100
AcDbSpline
210
0.0
220
0.0
230
1.0
 70
     8
 71
     3
 72
    12
 73
     8
 74
     0
 42
0.00000001
 43
0.00000001
 40
0.0
 40
0.0
 40
0.0
 40
0.0
 40
0.0708739387501417
 40
0.1287330167300947
 40
0.2523738166440231
 40
0.4927103361402731
 40
1.0
 40
1.0
 40
1.0
 40
1.0
 10
7.680326700210571
 20
5.147781747129796
 30
0.0
 10
7.656258862686836
 20
5.072844383421589
 30
0.0
 10
7.676585516916263
 20
5.011890140801847
 30
0.0
 10
7.764655469988687
 20
4.906548900732202
 30
0.0
 10
7.927977299739843
 20
4.695452195464251
 30
0.0
 10
8.028263829900517
 20
4.141090954255962
 30
0.0
 10
8.021881564253029
 20
4.336840844224755
 30
0.0
 10
8.028263829900517
 20
4.141090954255962
 30
0.0
  0
SPLINE
  5
BE
330
1F
100
AcDbEntity
  8
0
  6
Continuous
 62
     7
100
AcDbSpline
210
0.0
220
0.0
230
1.0
 70
     8
 71
     3
 72
     9
 73
     5
 74
     0
 42
0.00000001
 43
0.00000001
 40
0.0
 40
0.0
 40
0.0
 40
0.0
 40
0.550196997149336
 40
1.0
 40
1.0
 40
1.0
 40
1.0
 10
8.028261363506317
 20
4.141090954255962
 30
0.0
 10
8.714042435755655
 20
4.364667659039612
 30
0.0
 10
9.301152741602031
 20
4.309571667329802
 30
0.0
 10
9.103465439474267
 20
4.345769950629633
 30
0.0
 10
9.301152741602031
 20
4.309571667329802
 30
0.0
  0
SPLINE
  5
BF
330
1F
100
AcDbEntity
  8
0
  6
Continuous
 62
     7
100
AcDbSpline
210
0.0
220
0.0
230
1.0
 70
     8
 71
     3
 72
     9
 73
     5
 74
     0
 42
0.00000001
 43
0.00000001
 40
0.0
 40
0.0
 40
0.0
 40
0.0
 40
0.5520460038837584
 40
0.9999999999999999
 40
0.9999999999999999
 40
0.9999999999999999
 40
0.9999999999999999
 10
10.66111028194427
 20
5.421600028366186
 30
0.0
 10
10.20786576400965
 20
5.410253053642611
 30
0.0
 10
9.889869131982481
 20
5.225248555576894
 30
0.0
 10
9.992151068743706
 20
5.30004155509622
 30
0.0
 10
9.889869131982481
 20
5.225248555576894
 30
0.0
  0
SPLINE
  5
C0
330
1F
100
AcDbEntity
  8
0
  6
Continuous
 62
     7
100
AcDbSpline
210
0.0
220
0.0
230
1.0
 70
     8
 71
     3
 72
    10
 73
     6
 74
     0
 42
0.00000001
 43
0.00000001
 40
0.0
 40
0.0
 40
0.0
 40
0.0
 40
0.2437367628083055
 40
0.4984518926215263
 40
1.0
 40
1.0
 40
1.0
 40
1.0
 10
9.889863431453705
 20
5.225248555576894
 30
0.0
 10
9.36450840878745
 20
5.641950027120767
 30
0.0
 10
8.767717706287923
 20
6.009232191863576
 30
0.0
 10
7.493384057538775
 20
5.480098432812631
 30
0.0
 10
7.926845975158773
 20
5.797160769067284
 30
0.0
 10
7.493384057538775
 20
5.480098432812631
 30
0.0
  0
SPLINE
  5
C1
330
1F
100
AcDbEntity
  8
0
  6
Continuous
 62
     7
100
AcDbSpline
210
0.0
220
0.0
230
1.0
 70
     8
 71
     3
 72
    10
 73
     6
 74
     0
 42
0.00000001
 43
0.00000001
 40
0.0
 40
0.0
 40
0.0
 40
0.0
 40
0.4996442236211683
 40
0.7444637737094832
 40
0.9999999999999999
 40
0.9999999999999999
 40
0.9999999999999999
 40
0.9999999999999999
 10
9.380042552947998
 20
6.711144383812108
 30
0.0
 10
8.162768024069743
 20
6.702879072676414
 30
0.0
 10
7.607989871256245
 20
6.483813464807572
 30
0.0
 10
7.22995710564519
 20
5.989153848556938
 30
0.0
 10
7.338773802052364
 20
6.17435851785033
 30
0.0
 10
7.22995710564519
 20
5.989153848556938
 30
0.0
  0
SPLINE
  5
C2
330
1F
100
AcDbEntity
  8
0
  6
Continuous
 62
     7
100
AcDbSpline
210
0.0
220
0.0
230
1.0
 70
     8
 71
     3
 72
    10
 73
     6
 74
     0
 42
0.00000001
 43
0.00000001
 40
0.0
 40
0.0
 40
0.0
 40
0.0
 40
0.5394273974432592
 40
0.7433461711279991
 40
0.9999999999999999
 40
0.9999999999999999
 40
0.9999999999999999
 40
0.9999999999999999
 10
7.22995400428772
 20
5.989153848556938
 30
0.0
 10
5.797773751774608
 20
6.002818457351146
 30
0.0
 10
5.257444310198829
 20
5.968327130674889
 30
0.0
 10
4.757371849171164
 20
6.431250218459791
 30
0.0
 10
4.906840353030628
 20
6.227788413206176
 30
0.0
 10
4.757371849171164
 20
6.431250218459791
 30
0.0
  0
SPLINE
  5
C3
330
1F
100
AcDbEntity
  8
0
  6
Continuous
 62
     7
100
AcDbSpline
210
0.0
220
0.0
230
1.0
 70
     8
 71
     3
 72
    13
 73
     9
 74
     0
 42
0.00000001
 43
0.00000001
 40
0.0
 40
0.0
 40
0.0
 40
0.0
 40
0.2827759474988983
 40
0.4224853602165317
 40
0.5649854477209552
 40
0.6559590786626123
 40
0.7520140422524194
 40
1.0
 40
1.0
 40
1.0
 40
1.0
 10
2.696380019187927
 20
9.767321870809685
 30
0.0
 10
2.51858400866097
 20
9.16782194019512
 30
0.0
 10
2.551493005032164
 20
8.860636940846753
 30
0.0
 10
2.78410006611371
 20
8.6480559263456
 30
0.0
 10
2.978659848964075
 20
8.699209894078479
 30
0.0
 10
3.135727026908355
 20
8.842204048170494
 30
0.0
 10
3.401624809777954
 20
9.321803869591582
 30
0.0
 10
3.325888887190419
 20
9.152604039145043
 30
0.0
 10
3.401624809777954
 20
9.321803869591582
 30
0.0
  0
SPLINE
  5
C4
330
1F
100
AcDbEntity
  8
0
  6
Continuous
 62
     7
100
AcDbSpline
210
0.0
220
0.0
230
1.0
 70
     8
 71
     3
 72
     9
 73
     5
 74
     0
 42
0.00000001
 43
0.00000001
 40
0.0
 40
0.0
 40
0.0
 40
0.0
 40
0.5544739415881111
 40
1.0
 40
1.0
 40
1.0
 40
1.0
 10
2.696380019187927
 20
9.767321870809685
 30
0.0
 10
3.132618096531038
 20
9.58852600035456
 30
0.0
 10
3.401624809777954
 20
9.32180386959158
 30
0.0
 10
3.318008784988139
 20
9.419848810333336
 30
0.0
 10
3.401624809777954
 20
9.32180386959158
 30
0.0
  0
SPLINE
  5
C5
330
1F
100
AcDbEntity
  8
0
  6
Continuous
 62
     7
100
AcDbSpline
210
0.0
220
0.0
230
1.0
 70
    11
 71
     3
 72
    17
 73
    13
 74
     0
 42
0.00000001
 43
0.00000001
 40
0.0
 40
0.0
 40
0.0
 40
0.0
 40
0.0489144607759154
 40
0.1089381368021543
 40
0.252631906805608
 40
0.3933544259984746
 40
0.4496356333658926
 40
0.4955268792403633
 40
0.6067650447835888
 40
0.7499972881712529
 40
0.8910909288089832
 40
1.0
 40
1.0
 40
1.0
 40
1.0
 10
2.555588260293007
 20
12.92443807660812
 30
0.0
 10
2.406631902769314
 20
12.86487126334301
 30
0.0
 10
2.281569260544902
 20
12.71284098168819
 30
0.0
 10
2.162750195354716
 20
12.25679206597285
 30
0.0
 10
2.270494471429552
 20
11.80801622125906
 30
0.0
 10
2.388231061730245
 20
11.66585425628653
 30
0.0
 10
2.531853020431551
 20
11.62084386323561
 30
0.0
 10
2.826706735369541
 20
11.83569527933649
 30
0.0
 10
2.979861017119667
 20
12.27978753844723
 30
0.0
 10
2.851490548712989
 20
12.72437117392477
 30
0.0
 10
2.555588935322974
 20
12.92443807660812
 30
0.0
 10
2.666069026438379
 20
12.86894925561247
 30
0.0
 10
2.555588935322974
 20
12.92443807660812
 30
0.0
  0
SPLINE
  5
C6
330
1F
100
AcDbEntity
  8
0
  6
Continuous
 62
     7
100
AcDbSpline
210
0.0
220
0.0
230
1.0
 70
     8
 71
     3
 72
    16
 73
    12
 74
     0
 42
0.00000001
 43
0.00000001
 40
0.0
 40
0.0
 40
0.0
 40
0.0
 40
0.1247595690500497
 40
0.2113828502907072
 40
0.3052620711266412
 40
0.4043002977445684
 40
0.4994234124878458
 40
0.6306215560842708
 40
0.7459166740814418
 40
0.8671953160751007
 40
1.0
 40
1.0
 40
1.0
 40
1.0
 10
5.762320011854172
 20
13.32660530523774
 30
0.0
 10
5.039628892532837
 20
13.35138461924003
 30
0.0
 10
4.661012139110172
 20
13.02164428933776
 30
0.0
 10
4.574540770355566
 20
12.48442809283314
 30
0.0
 10
4.766536680532909
 20
11.94345542163985
 30
0.0
 10
5.206576670478258
 20
11.61127870456967
 30
0.0
 10
5.96642133805196
 20
11.64121787460444
 30
0.0
 10
6.445615272541795
 20
12.10698976014812
 30
0.0
 10
6.322939011089698
 20
12.79914242208024
 30
0.0
 10
5.762321808225995
 20
13.32660530523774
 30
0.0
 10
5.973009395341064
 20
13.1754751302355
 30
0.0
 10
5.762321808225995
 20
13.32660530523774
 30
0.0
  0
SPLINE
  5
C7
330
1F
100
AcDbEntity
  8
0
  6
Continuous
 62
     7
100
AcDbSpline
210
0.0
220
0.0
230
1.0
 70
     8
 71
     3
 72
    15
 73
    11
 74
     0
 42
0.00000001
 43
0.00000001
 40
0.0
 40
0.0
 40
0.0
 40
0.0
 40
0.1110883152003965
 40
0.2491237121648942
 40
0.3844369575759126
 40
0.4953615318264014
 40
0.6145062071394953
 40
0.7495034754042353
 40
0.8873671676561592
 40
1.0
 40
1.0
 40
1.0
 40
1.0
 10
6.985753774642944
 20
10.31532455199136
 30
0.0
 10
6.60157246987596
 20
9.925727634997918
 30
0.0
 10
6.532243281264246
 20
9.249388623825357
 30
0.0
 10
6.86063118138952
 20
8.669431092474882
 30
0.0
 10
7.382061022899129
 20
8.506305234358004
 30
0.0
 10
7.811631164705065
 20
8.906115942249787
 30
0.0
 10
7.881100447781241
 20
9.567395982530293
 30
0.0
 10
7.510973742973579
 20
10.13669199717033
 30
0.0
 10
6.985755494952078
 20
10.31532455199136
 30
0.0
 10
7.172828721434144
 20
10.27680584563475
 30
0.0
 10
6.985755494952079
 20
10.31532455199136
 30
0.0
  0
SPLINE
  5
C8
330
1F
100
AcDbEntity
  8
0
  6
Continuous
 62
     7
100
AcDbSpline
210
0.0
220
0.0
230
1.0
 70
     8
 71
     3
 72
    16
 73
    12
 74
     0
 42
0.00000001
 43
0.00000001
 40
0.0
 40
0.0
 40
0.0
 40
0.0
 40
0.1074033430459272
 40
0.2490762434861722
 40
0.3895351616894438
 40
0.4485790516421809
 40
0.4978356153146489
 40
0.6096449611960637
 40
0.7510139875351933
 40
0.8916477382075623
 40
1.0
 40
1.0
 40
1.0
 40
1.0
 10
20.72308957576752
 20
4.024956148353771
 30
0.0
 10
20.14659573733191
 20
3.631429222797781
 30
0.0
 10
19.87151299375946
 20
2.752765229338305
 30
0.0
 10
20.09459403407237
 20
1.867615560606178
 30
0.0
 10
20.34564647352865
 20
1.577419346832858
 30
0.0
 10
20.64794404289674
 20
1.472116296119588
 30
0.0
 10
21.2546354877604
 20
1.872025620277426
 30
0.0
 10
21.55198679827095
 20
2.74131870972482
 30
0.0
 10
21.2988477218741
 20
3.619527870125913
 30
0.0
 10
20.72310159948969
 20
4.024956148353771
 30
0.0
 10
20.93798882912306
 20
3.910813135629904
 30
0.0
 10
20.72310159948969
 20
4.024956148353772
 30
0.0
  0
SPLINE
  5
C9
330
1F
100
AcDbEntity
  8
0
  6
Continuous
 62
     7
100
AcDbSpline
210
0.0
220
0.0
230
1.0
 70
     8
 71
     3
 72
    16
 73
    12
 74
     0
 42
0.00000001
 43
0.00000001
 40
0.0
 40
0.0
 40
0.0
 40
0.0
 40
0.1183491006965138
 40
0.2478459548469897
 40
0.3883403821446475
 40
0.5029436556005895
 40
0.5538666836956757
 40
0.6135922315125341
 40
0.750409389747214
 40
0.8837977841792993
 40
0.9999999999999999
 40
0.9999999999999999
 40
0.9999999999999999
 40
0.9999999999999999
 10
20.47789096832275
 20
8.096910329276744
 30
0.0
 10
19.85327654960334
 20
7.853176796853635
 30
0.0
 10
19.58988315484443
 20
7.168449660349416
 30
0.0
 10
19.81914242606821
 20
6.406237262063592
 30
0.0
 10
20.32441342164682
 20
5.998507312983612
 30
0.0
 10
20.60775191883173
 20
6.052807425948504
 30
0.0
 10
20.86802156138714
 20
6.269024270041318
 30
0.0
 10
21.17790439538552
 20
6.979496352564028
 30
0.0
 10
21.01598370280721
 20
7.717631755351176
 30
0.0
 10
20.47789912450074
 20
8.096910329276742
 30
0.0
 10
20.68294125193091
 20
7.992440822298066
 30
0.0
 10
20.47789912450074
 20
8.096910329276742
 30
0.0
  0
SPLINE
  5
CA
330
1F
100
AcDbEntity
  8
0
  6
Continuous
 62
     7
100
AcDbSpline
210
0.0
220
0.0
230
1.0
 70
     8
 71
     3
 72
    15
 73
    11
 74
     0
 42
0.00000001
 43
0.00000001
 40
0.0
 40
0.0
 40
0.0
 40
0.0
 40
0.1137847391184835
 40
0.2499240367450291
 40
0.3855321845830435
 40
0.4956357963590752
 40
0.6129966621752941
 40
0.7499174225321457
 40
0.8842511800903857
 40
1.0
 40
1.0
 40
1.0
 40
1.0
 10
18.37639510631561
 20
10.59058540371618
 30
0.0
 10
17.84240299365222
 20
10.23861159966258
 30
0.0
 10
17.62584105552119
 20
9.50468916698266
 30
0.0
 10
17.8862645413119
 20
8.788336786315215
 30
0.0
 10
18.4317516346529
 20
8.496036845071764
 30
0.0
 10
18.98151837947988
 20
8.86059767533575
 30
0.0
 10
19.23010395447998
 20
9.588943697357921
 30
0.0
 10
18.95435335382557
 20
10.29184795224076
 30
0.0
 10
18.37639843303036
 20
10.59058540371618
 30
0.0
 10
18.58934877345966
 20
10.51570055651491
 30
0.0
 10
18.37639843303036
 20
10.59058540371618
 30
0.0
  0
SPLINE
  5
CB
330
1F
100
AcDbEntity
  8
0
  6
Continuous
 62
     7
100
AcDbSpline
210
0.0
220
0.0
230
1.0
 70
     8
 71
     3
 72
    10
 73
     6
 74
     0
 42
0.00000001
 43
0.00000001
 40
0.0
 40
0.0
 40
0.0
 40
0.0
 40
0.2364428615040881
 40
0.5010826734648358
 40
1.0
 40
1.0
 40
1.0
 40
1.0
 10
15.60088247060776
 20
8.929031135853789
 30
0.0
 10
15.01986754365163
 20
8.808955096442105
 30
0.0
 10
14.77041144361343
 20
8.193545614797397
 30
0.0
 10
15.11979257413588
 20
6.991380613446782
 30
0.0
 10
14.93256185500275
 20
7.369560958391042
 30
0.0
 10
15.11979257413588
 20
6.991380613446782
 30
0.0
  0
SPLINE
  5
CC
330
1F
100
AcDbEntity
  8
0
  6
Continuous
 62
     7
100
AcDbSpline
210
0.0
220
0.0
230
1.0
 70
     8
 71
     3
 72
    10
 73
     6
 74
     0
 42
0.00000001
 43
0.00000001
 40
0.0
 40
0.0
 40
0.0
 40
0.0
 40
0.2868288949568205
 40
0.6229672021148588
 40
1.0
 40
1.0
 40
1.0
 40
1.0
 10
15.60088247060776
 20
8.929031135853789
 30
0.0
 10
16.09016063450055
 20
8.408268355238269
 30
0.0
 10
15.82227379998775
 20
7.614879545996167
 30
0.0
 10
15.11979257413588
 20
6.991380613446782
 30
0.0
 10
15.36782472343546
 20
7.168932031660346
 30
0.0
 10
15.11979257413588
 20
6.991380613446782
 30
0.0
  0
SPLINE
  5
CD
330
1F
100
AcDbEntity
  8
0
  6
Continuous
 62
     7
100
AcDbSpline
210
0.0
220
0.0
230
1.0
 70
     8
 71
     3
 72
     9
 73
     5
 74
     0
 42
0.00000001
 43
0.00000001
 40
0.0
 40
0.0
 40
0.0
 40
0.0
 40
0.5518810207714061
 40
1.0
 40
1.0
 40
1.0
 40
1.0
 10
15.11979103088379
 20
6.991380613446782
 30
0.0
 10
15.10540469258855
 20
6.298908132635823
 30
0.0
 10
15.44283049716468
 20
5.848979445540063
 30
0.0
 10
15.30428162841346
 20
5.990564765039138
 30
0.0
 10
15.44283049716468
 20
5.848979445540063
 30
0.0
  0
SPLINE
  5
CE
330
1F
100
AcDbEntity
  8
0
  6
Continuous
 62
     7
100
AcDbSpline
210
0.0
220
0.0
230
1.0
 70
     8
 71
     3
 72
     9
 73
     5
 74
     0
 42
0.00000001
 43
0.00000001
 40
0.0
 40
0.0
 40
0.0
 40
0.0
 40
0.5567776958025663
 40
1.0
 40
1.0
 40
1.0
 40
1.0
 10
7.22995400428772
 20
5.848979445540063
 30
0.0
 10
5.724056632786684
 20
5.83049697444322
 30
0.0
 10
4.648550694465228
 20
5.300828924536602
 30
0.0
 10
4.997947255679417
 20
5.515424872025644
 30
0.0
 10
4.648550694465228
 20
5.300828924536602
 30
0.0
  0
SPLINE
  5
CF
330
1F
100
AcDbEntity
  8
0
  6
Continuous
 62
     7
100
AcDbSpline
210
0.0
220
0.0
230
1.0
 70
     8
 71
     3
 72
     9
 73
     5
 74
     0
 42
0.00000001
 43
0.00000001
 40
0.0
 40
0.0
 40
0.0
 40
0.0
 40
0.5564375747422237
 40
1.0
 40
1.0
 40
1.0
 40
1.0
 10
7.22995400428772
 20
5.848979445540063
 30
0.0
 10
7.337694566229665
 20
5.465211642264399
 30
0.0
 10
7.3235134873422
 20
5.147781747129796
 30
0.0
 10
7.335638108912492
 20
5.254442658856432
 30
0.0
 10
7.3235134873422
 20
5.147781747129796
 30
0.0
  0
SPLINE
  5
D0
330
1F
100
AcDbEntity
  8
0
  6
Continuous
 62
     7
100
AcDbSpline
210
0.0
220
0.0
230
1.0
 70
     8
 71
     3
 72
     9
 73
     5
 74
     0
 42
0.00000001
 43
0.00000001
 40
0.0
 40
0.0
 40
0.0
 40
0.0
 40
0.5485170684544471
 40
1.0
 40
1.0
 40
1.0
 40
1.0
 10
7.323510944843292
 20
5.147781747129796
 30
0.0
 10
6.219819599975378
 20
5.099054157277
 30
0.0
 10
5.388605624217824
 20
4.730319870401367
 30
0.0
 10
5.659865505014936
 20
4.877959526538499
 30
0.0
 10
5.388605624217824
 20
4.730319870401367
 30
0.0
  0
SPLINE
  5
D1
330
1F
100
AcDbEntity
  8
0
  6
Continuous
 62
     7
100
AcDbSpline
210
0.0
220
0.0
230
1.0
 70
     8
 71
     3
 72
     9
 73
     5
 74
     0
 42
0.00000001
 43
0.00000001
 40
0.0
 40
0.0
 40
0.0
 40
0.0
 40
0.5473400846590086
 40
0.9999999999999999
 40
0.9999999999999999
 40
0.9999999999999999
 40
0.9999999999999999
 10
4.648547619581223
 20
5.300828924536602
 30
0.0
 10
5.135095382787192
 20
5.088686108527508
 30
0.0
 10
5.388605624217824
 20
4.730319870401367
 30
0.0
 10
5.315333710117316
 20
4.863575403965908
 30
0.0
 10
5.388605624217824
 20
4.730319870401367
 30
0.0
  0
SPLINE
  5
D2
330
1F
100
AcDbEntity
  8
0
  6
Continuous
 62
     7
100
AcDbSpline
210
0.0
220
0.0
230
1.0
 70
     8
 71
     3
 72
     9
 73
     5
 74
     0
 42
0.00000001
 43
0.00000001
 40
0.0
 40
0.0
 40
0.0
 40
0.0
 40
0.5611691704555365
 40
1.0
 40
1.0
 40
1.0
 40
1.0
 10
5.131106823682785
 20
4.141090954255962
 30
0.0
 10
6.355463969710417
 20
4.116372478111374
 30
0.0
 10
7.22995710564519
 20
3.726082535657611
 30
0.0
 10
6.944525981172134
 20
3.883310648598901
 30
0.0
 10
7.22995710564519
 20
3.726082535657611
 30
0.0
  0
SPLINE
  5
D3
330
1F
100
AcDbEntity
  8
0
  6
Continuous
 62
     7
100
AcDbSpline
210
0.0
220
0.0
230
1.0
 70
     8
 71
     3
 72
    14
 73
    10
 74
     0
 42
0.00000001
 43
0.00000001
 40
0.0
 40
0.0
 40
0.0
 40
0.0
 40
0.175348444537973
 40
0.3586786858152924
 40
0.5436846639187685
 40
0.7186540137427313
 40
0.764190944202712
 40
0.8153484488101617
 40
1.0
 40
1.0
 40
1.0
 40
1.0
 10
5.131106823682785
 20
4.141090954255962
 30
0.0
 10
5.642451243303865
 20
4.707349844947728
 30
0.0
 10
6.391739214745385
 20
4.981013768030405
 30
0.0
 10
7.196726572771585
 20
4.978643478185728
 30
0.0
 10
7.865783888355791
 20
4.615366398335065
 30
0.0
 10
7.931294870455282
 20
4.42837124419398
 30
0.0
 10
7.867415321742528
 20
4.215139590155019
 30
0.0
 10
7.22995710564519
 20
3.72608253565761
 30
0.0
 10
7.480765255277448
 20
3.852169511509656
 30
0.0
 10
7.22995710564519
 20
3.72608253565761
 30
0.0
  0
SPLINE
  5
D4
330
1F
100
AcDbEntity
  8
0
  6
Continuous
 62
     7
100
AcDbSpline
210
0.0
220
0.0
230
1.0
 70
     8
 71
     3
 72
     9
 73
     5
 74
     0
 42
0.00000001
 43
0.00000001
 40
0.0
 40
0.0
 40
0.0
 40
0.0
 40
0.5575656869302765
 40
1.0
 40
1.0
 40
1.0
 40
1.0
 10
7.03158974647522
 20
2.959033173565139
 30
0.0
 10
8.471365383923233
 20
3.169894400502042
 30
0.0
 10
9.622229575564111
 20
3.076287748248346
 30
0.0
 10
9.237989737512189
 20
3.126730496158901
 30
0.0
 10
9.622229575564111
 20
3.076287748248346
 30
0.0
  0
SPLINE
  5
D5
330
1F
100
AcDbEntity
  8
0
  6
Continuous
 62
     7
100
AcDbSpline
210
0.0
220
0.0
230
1.0
 70
     8
 71
     3
 72
     9
 73
     5
 74
     0
 42
0.00000001
 43
0.00000001
 40
0.0
 40
0.0
 40
0.0
 40
0.0
 40
0.4830584719301544
 40
0.9999999999999999
 40
0.9999999999999999
 40
0.9999999999999999
 40
0.9999999999999999
 10
7.03158974647522
 20
2.959033173565139
 30
0.0
 10
8.208131812198872
 20
4.071312765882452
 30
0.0
 10
9.934954420725193
 20
3.929379413734167
 30
0.0
 10
9.319046585600361
 20
4.091471479204601
 30
0.0
 10
9.934954420725193
 20
3.929379413734167
 30
0.0
  0
SPLINE
  5
D6
330
1F
100
AcDbEntity
  8
0
  6
Continuous
 62
     7
100
AcDbSpline
210
0.0
220
0.0
230
1.0
 70
     8
 71
     3
 72
     9
 73
     5
 74
     0
 42
0.00000001
 43
0.00000001
 40
0.0
 40
0.0
 40
0.0
 40
0.0
 40
0.5463242366010856
 40
1.0
 40
1.0
 40
1.0
 40
1.0
 10
9.934954345226288
 20
3.929379413734167
 30
0.0
 10
9.88396897775768
 20
3.415731587181513
 30
0.0
 10
9.622229575564111
 20
3.076287748248346
 30
0.0
 10
9.726065483281968
 20
3.182850065493121
 30
0.0
 10
9.622229575564111
 20
3.076287748248346
 30
0.0
  0
SPLINE
  5
D7
330
1F
100
AcDbEntity
  8
0
  6
Continuous
 62
     7
100
AcDbSpline
210
0.0
220
0.0
230
1.0
 70
     8
 71
     3
 72
     9
 73
     5
 74
     0
 42
0.00000001
 43
0.00000001
 40
0.0
 40
0.0
 40
0.0
 40
0.0
 40
0.5557876165656381
 40
1.0
 40
1.0
 40
1.0
 40
1.0
 10
10.85281372070312
 20
2.071964950718536
 30
0.0
 10
12.19688835204676
 20
2.316234782451087
 30
0.0
 10
13.27967667006065
 20
2.17588809793856
 30
0.0
 10
12.91811505944258
 20
2.247515048129041
 30
0.0
 10
13.27967667006065
 20
2.17588809793856
 30
0.0
  0
SPLINE
  5
D8
330
1F
100
AcDbEntity
  8
0
  6
Continuous
 62
     7
100
AcDbSpline
210
0.0
220
0.0
230
1.0
 70
     8
 71
     3
 72
    10
 73
     6
 74
     0
 42
0.00000001
 43
0.00000001
 40
0.0
 40
0.0
 40
0.0
 40
0.0
 40
0.4931188001343925
 40
0.7488040933100061
 40
1.0
 40
1.0
 40
1.0
 40
1.0
 10
10.85281372070312
 20
2.071964950718536
 30
0.0
 10
11.21301241298602
 20
2.788029313550505
 30
0.0
 10
11.59274655896563
 20
2.956952651743655
 30
0.0
 10
11.99934828727332
 20
2.919594655281543
 30
0.0
 10
11.86371355470871
 20
2.946666230609755
 30
0.0
 10
11.99934828727332
 20
2.919594655281543
 30
0.0
  0
SPLINE
  5
D9
330
1F
100
AcDbEntity
  8
0
  6
Continuous
 62
     7
100
AcDbSpline
210
0.0
220
0.0
230
1.0
 70
     8
 71
     3
 72
    10
 73
     6
 74
     0
 42
0.00000001
 43
0.00000001
 40
0.0
 40
0.0
 40
0.0
 40
0.0
 40
0.2551019077818575
 40
0.4969801864782864
 40
1.0
 40
1.0
 40
1.0
 40
1.0
 10
11.99934631586075
 20
2.919594655281543
 30
0.0
 10
12.43255907414015
 20
3.217868274885837
 30
0.0
 10
12.92677392610471
 20
3.151120689934937
 30
0.0
 10
13.27967667006065
 20
2.17588809793856
 30
0.0
 10
13.24607297419637
 20
2.5782461836746
 30
0.0
 10
13.27967667006065
 20
2.17588809793856
 30
0.0
  0
MTEXT
  5
DB
330
1F
100
AcDbEntity
  8
0
  6
Continuous
 62
     7
100
AcDbMText
 10
0.0
 20
-0.4133300278
 30
0.0
 40
4.83362
 41
0.0
 71
     1
 72
     1
  1
Producto SOLIDWORKS Educational.
  7
SLDTEXTSTYLE0
 73
     1
 44
1.0
  0
MTEXT
  5
DC
330
1F
100
AcDbEntity
  8
0
  6
Continuous
 62
     7
100
AcDbMText
 10
0.0
 20
-7.6637600278
 30
0.0
 40
4.83362
 41
0.0
 71
     1
 72
     1
  1
Solo para uso en la enseanza.
  7
SLDTEXTSTYLE0
 73
     1
 44
1.0
  0
ENDSEC
  0
SECTION
  2
OBJECTS
  0
DICTIONARY
  5
C
330
0
100
AcDbDictionary
281
     1
  3
ACAD_GROUP
350
D
  3
ACAD_LAYOUT
350
1A
  3
ACAD_MLINESTYLE
350
17
  3
ACAD_PLOTSETTINGS
350
19
  3
ACAD_PLOTSTYLENAME
350
E
  3
ACAD_SCALELIST
350
47
  3
DWGPROPS
350
DD
  0
DICTIONARY
  5
D
102
{ACAD_REACTORS
330
C
102
}
330
C
100
AcDbDictionary
281
     1
  0
DICTIONARY
  5
1A
102
{ACAD_REACTORS
330
C
102
}
330
C
100
AcDbDictionary
281
     1
  3
Layout1
350
1E
  3
Layout2
350
26
  3
Model
350
22
  0
DICTIONARY
  5
17
102
{ACAD_REACTORS
330
C
102
}
330
C
100
AcDbDictionary
281
     1
  3
Standard
350
18
  0
DICTIONARY
  5
19
102
{ACAD_REACTORS
330
C
102
}
330
C
100
AcDbDictionary
281
     1
  0
ACDBDICTIONARYWDFLT
  5
E
102
{ACAD_REACTORS
330
C
102
}
330
C
100
AcDbDictionary
281
     1
  3
Normal
350
F
100
AcDbDictionaryWithDefault
340
F
  0
DICTIONARY
  5
47
102
{ACAD_REACTORS
330
C
102
}
330
C
100
AcDbDictionary
281
     1
  3
A0
350
48
  3
A1
350
49
  3
A2
350
4A
  3
A3
350
4B
  3
A4
350
4C
  3
A5
350
4D
  3
A6
350
4E
  3
A7
350
4F
  3
A8
350
50
  3
A9
350
51
  3
B0
350
52
  3
B1
350
53
  3
B2
350
54
  3
B3
350
55
  3
B4
350
56
  3
B5
350
57
  3
B6
350
58
  0
XRECORD
  5
DD
102
{ACAD_REACTORS
330
C
102
}
330
C
100
AcDbXrecord
280
     1
  1
DWGPROPS COOKIE
  2

  3

  4

  6

  7

  8
Ana Paula
  9

300
=
301
=
302
=
303
=
304
=
305
=
306
=
307
=
308
=
309
=
 40
0.0
 41
2460945.183574792
 42
2460945.183696551
  1

 90
        0
  0
LAYOUT
  5
1E
102
{ACAD_REACTORS
330
1A
102
}
330
1A
100
AcDbPlotSettings
  1

  2
none_device
  4

  6

 40
0.0
 41
0.0
 42
0.0
 43
0.0
 44
0.0
 45
0.0
 46
0.0
 47
0.0
 48
0.0
 49
0.0
140
0.0
141
0.0
142
1.0
143
1.0
 70
   688
 72
     1
 73
     0
 74
     5
  7

 75
    16
147
1.0
148
0.0
149
0.0
100
AcDbLayout
  1
Layout1
 70
     1
 71
     1
 10
0.0
 20
0.0
 11
420.0
 21
297.0
 12
0.0
 22
0.0
 32
0.0
 14
1.0000000000E+20
 24
1.0000000000E+20
 34
1.0000000000E+20
 15
-1.0000000000E+20
 25
-1.0000000000E+20
 35
-1.0000000000E+20
146
0.0
 13
0.0
 23
0.0
 33
0.0
 16
1.0
 26
0.0
 36
0.0
 17
0.0
 27
1.0
 37
0.0
 76
     0
330
1B
  0
LAYOUT
  5
26
102
{ACAD_REACTORS
330
1A
102
}
330
1A
100
AcDbPlotSettings
  1

  2
none_device
  4

  6

 40
0.0
 41
0.0
 42
0.0
 43
0.0
 44
0.0
 45
0.0
 46
0.0
 47
0.0
 48
0.0
 49
0.0
140
0.0
141
0.0
142
1.0
143
1.0
 70
   688
 72
     1
 73
     0
 74
     5
  7

 75
    16
147
1.0
148
0.0
149
0.0
100
AcDbLayout
  1
Layout2
 70
     1
 71
     2
 10
0.0
 20
0.0
 11
0.0
 21
0.0
 12
0.0
 22
0.0
 32
0.0
 14
0.0
 24
0.0
 34
0.0
 15
0.0
 25
0.0
 35
0.0
146
0.0
 13
0.0
 23
0.0
 33
0.0
 16
1.0
 26
0.0
 36
0.0
 17
0.0
 27
1.0
 37
0.0
 76
     0
330
23
  0
LAYOUT
  5
22
102
{ACAD_REACTORS
330
1A
102
}
330
1A
100
AcDbPlotSettings
  1

  2
none_device
  4
ANSI_A_(11.00_x_8.50_Inches)
  6

 40
6.35
 41
19.05
 42
6.35000508
 43
19.05000254
 44
279.4
 45
215.9
 46
32.4447768817
 47
-20.609256899
 48
0.0
 49
0.0
140
0.0
141
0.0
142
0.1713655318
143
1.0
 70
  1696
 72
     0
 73
     0
 74
     0
  7

 75
     0
147
0.0179189148
148
-1300.4909072572
149
0.0
100
AcDbLayout
  1
Model
 70
     1
 71
     0
 10
0.0
 20
0.0
 11
420.0
 21
297.0
 12
0.0
 22
0.0
 32
0.0
 14
0.0
 24
0.6062363639
 34
0.0
 15
46.3645919688
 25
49.7117940111
 35
0.0
146
0.0
 13
0.0
 23
0.0
 33
0.0
 16
1.0
 26
0.0
 36
0.0
 17
0.0
 27
1.0
 37
0.0
 76
     0
330
1F
331
29
  0
MLINESTYLE
  5
18
102
{ACAD_REACTORS
330
17
102
}
330
17
100
AcDbMlineStyle
  2
Standard
 70
     0
  3

 62
   256
 51
90.0
 52
90.0
 71
     2
 49
0.5
 62
   256
  6
BYLAYER
 49
-0.5
 62
   256
  6
BYLAYER
  0
ACDBPLACEHOLDER
  5
F
102
{ACAD_REACTORS
330
E
102
}
330
E
  0
SCALE
  5
48
102
{ACAD_REACTORS
330
47
102
}
330
47
100
AcDbScale
 70
     0
300
1:1
140
1.0
141
1.0
290
     1
  0
SCALE
  5
49
102
{ACAD_REACTORS
330
47
102
}
330
47
100
AcDbScale
 70
     0
300
1:2
140
1.0
141
2.0
290
     0
  0
SCALE
  5
4A
102
{ACAD_REACTORS
330
47
102
}
330
47
100
AcDbScale
 70
     0
300
1:4
140
1.0
141
4.0
290
     0
  0
SCALE
  5
4B
102
{ACAD_REACTORS
330
47
102
}
330
47
100
AcDbScale
 70
     0
300
1:5
140
1.0
141
5.0
290
     0
  0
SCALE
  5
4C
102
{ACAD_REACTORS
330
47
102
}
330
47
100
AcDbScale
 70
     0
300
1:8
140
1.0
141
8.0
290
     0
  0
SCALE
  5
4D
102
{ACAD_REACTORS
330
47
102
}
330
47
100
AcDbScale
 70
     0
300
1:10
140
1.0
141
10.0
290
     0
  0
SCALE
  5
4E
102
{ACAD_REACTORS
330
47
102
}
330
47
100
AcDbScale
 70
     0
300
1:16
140
1.0
141
16.0
290
     0
  0
SCALE
  5
4F
102
{ACAD_REACTORS
330
47
102
}
330
47
100
AcDbScale
 70
     0
300
1:20
140
1.0
141
20.0
290
     0
  0
SCALE
  5
50
102
{ACAD_REACTORS
330
47
102
}
330
47
100
AcDbScale
 70
     0
300
1:30
140
1.0
141
30.0
290
     0
  0
SCALE
  5
51
102
{ACAD_REACTORS
330
47
102
}
330
47
100
AcDbScale
 70
     0
300
1:40
140
1.0
141
40.0
290
     0
  0
SCALE
  5
52
102
{ACAD_REACTORS
330
47
102
}
330
47
100
AcDbScale
 70
     0
300
1:50
140
1.0
141
50.0
290
     0
  0
SCALE
  5
53
102
{ACAD_REACTORS
330
47
102
}
330
47
100
AcDbScale
 70
     0
300
1:100
140
1.0
141
100.0
290
     0
  0
SCALE
  5
54
102
{ACAD_REACTORS
330
47
102
}
330
47
100
AcDbScale
 70
     0
300
2:1
140
2.0
141
1.0
290
     0
  0
SCALE
  5
55
102
{ACAD_REACTORS
330
47
102
}
330
47
100
AcDbScale
 70
     0
300
4:1
140
4.0
141
1.0
290
     0
  0
SCALE
  5
56
102
{ACAD_REACTORS
330
47
102
}
330
47
100
AcDbScale
 70
     0
300
8:1
140
8.0
141
1.0
290
     0
  0
SCALE
  5
57
102
{ACAD_REACTORS
330
47
102
}
330
47
100
AcDbScale
 70
     0
300
10:1
140
10.0
141
1.0
290
     0
  0
SCALE
  5
58
102
{ACAD_REACTORS
330
47
102
}
330
47
100
AcDbScale
 70
     0
300
100:1
140
100.0
141
1.0
290
     0
  0
ENDSEC
  0
EOF
